G04 #@! TF.FileFunction,Legend,Top*
%FSLAX46Y46*%
G04 Gerber Fmt 4.6, Leading zero omitted, Abs format (unit mm)*
G04 Created by KiCad (PCBNEW 4.0.7) date 04/22/18 16:27:13*
%MOMM*%
%LPD*%
G01*
G04 APERTURE LIST*
%ADD10C,0.100000*%
%ADD11C,0.635000*%
%ADD12C,0.300000*%
%ADD13C,0.444500*%
%ADD14C,0.150000*%
%ADD15C,0.120000*%
%ADD16C,0.152400*%
%ADD17C,0.010000*%
G04 APERTURE END LIST*
D10*
D11*
X150056548Y-168840453D02*
X150056548Y-170291881D01*
X150056548Y-169566167D02*
X147516548Y-169566167D01*
X147879405Y-169808072D01*
X148121310Y-170049977D01*
X148242262Y-170291881D01*
X147758452Y-167872833D02*
X147637500Y-167751881D01*
X147516548Y-167509976D01*
X147516548Y-166905214D01*
X147637500Y-166663310D01*
X147758452Y-166542357D01*
X148000357Y-166421405D01*
X148242262Y-166421405D01*
X148605119Y-166542357D01*
X150056548Y-167993786D01*
X150056548Y-166421405D01*
X147516548Y-165695690D02*
X150056548Y-164849024D01*
X147516548Y-164002357D01*
X149330833Y-163276642D02*
X149330833Y-162067119D01*
X150056548Y-163518547D02*
X147516548Y-162671881D01*
X150056548Y-161825214D01*
D12*
X114307786Y-190207914D02*
X114236357Y-190279343D01*
X114022071Y-190350771D01*
X113879214Y-190350771D01*
X113664929Y-190279343D01*
X113522071Y-190136486D01*
X113450643Y-189993629D01*
X113379214Y-189707914D01*
X113379214Y-189493629D01*
X113450643Y-189207914D01*
X113522071Y-189065057D01*
X113664929Y-188922200D01*
X113879214Y-188850771D01*
X114022071Y-188850771D01*
X114236357Y-188922200D01*
X114307786Y-188993629D01*
X115593500Y-190350771D02*
X115593500Y-189565057D01*
X115522071Y-189422200D01*
X115379214Y-189350771D01*
X115093500Y-189350771D01*
X114950643Y-189422200D01*
X115593500Y-190279343D02*
X115450643Y-190350771D01*
X115093500Y-190350771D01*
X114950643Y-190279343D01*
X114879214Y-190136486D01*
X114879214Y-189993629D01*
X114950643Y-189850771D01*
X115093500Y-189779343D01*
X115450643Y-189779343D01*
X115593500Y-189707914D01*
X116307786Y-190350771D02*
X116307786Y-189350771D01*
X116307786Y-189493629D02*
X116379214Y-189422200D01*
X116522072Y-189350771D01*
X116736357Y-189350771D01*
X116879214Y-189422200D01*
X116950643Y-189565057D01*
X116950643Y-190350771D01*
X116950643Y-189565057D02*
X117022072Y-189422200D01*
X117164929Y-189350771D01*
X117379214Y-189350771D01*
X117522072Y-189422200D01*
X117593500Y-189565057D01*
X117593500Y-190350771D01*
X118879214Y-190279343D02*
X118736357Y-190350771D01*
X118450643Y-190350771D01*
X118307786Y-190279343D01*
X118236357Y-190136486D01*
X118236357Y-189565057D01*
X118307786Y-189422200D01*
X118450643Y-189350771D01*
X118736357Y-189350771D01*
X118879214Y-189422200D01*
X118950643Y-189565057D01*
X118950643Y-189707914D01*
X118236357Y-189850771D01*
X119593500Y-190350771D02*
X119593500Y-189350771D01*
X119593500Y-189636486D02*
X119664928Y-189493629D01*
X119736357Y-189422200D01*
X119879214Y-189350771D01*
X120022071Y-189350771D01*
X121164928Y-190350771D02*
X121164928Y-189565057D01*
X121093499Y-189422200D01*
X120950642Y-189350771D01*
X120664928Y-189350771D01*
X120522071Y-189422200D01*
X121164928Y-190279343D02*
X121022071Y-190350771D01*
X120664928Y-190350771D01*
X120522071Y-190279343D01*
X120450642Y-190136486D01*
X120450642Y-189993629D01*
X120522071Y-189850771D01*
X120664928Y-189779343D01*
X121022071Y-189779343D01*
X121164928Y-189707914D01*
X123522071Y-189565057D02*
X123736357Y-189636486D01*
X123807785Y-189707914D01*
X123879214Y-189850771D01*
X123879214Y-190065057D01*
X123807785Y-190207914D01*
X123736357Y-190279343D01*
X123593499Y-190350771D01*
X123022071Y-190350771D01*
X123022071Y-188850771D01*
X123522071Y-188850771D01*
X123664928Y-188922200D01*
X123736357Y-188993629D01*
X123807785Y-189136486D01*
X123807785Y-189279343D01*
X123736357Y-189422200D01*
X123664928Y-189493629D01*
X123522071Y-189565057D01*
X123022071Y-189565057D01*
X124736357Y-190350771D02*
X124593499Y-190279343D01*
X124522071Y-190207914D01*
X124450642Y-190065057D01*
X124450642Y-189636486D01*
X124522071Y-189493629D01*
X124593499Y-189422200D01*
X124736357Y-189350771D01*
X124950642Y-189350771D01*
X125093499Y-189422200D01*
X125164928Y-189493629D01*
X125236357Y-189636486D01*
X125236357Y-190065057D01*
X125164928Y-190207914D01*
X125093499Y-190279343D01*
X124950642Y-190350771D01*
X124736357Y-190350771D01*
X126522071Y-190350771D02*
X126522071Y-189565057D01*
X126450642Y-189422200D01*
X126307785Y-189350771D01*
X126022071Y-189350771D01*
X125879214Y-189422200D01*
X126522071Y-190279343D02*
X126379214Y-190350771D01*
X126022071Y-190350771D01*
X125879214Y-190279343D01*
X125807785Y-190136486D01*
X125807785Y-189993629D01*
X125879214Y-189850771D01*
X126022071Y-189779343D01*
X126379214Y-189779343D01*
X126522071Y-189707914D01*
X127236357Y-190350771D02*
X127236357Y-189350771D01*
X127236357Y-189636486D02*
X127307785Y-189493629D01*
X127379214Y-189422200D01*
X127522071Y-189350771D01*
X127664928Y-189350771D01*
X128807785Y-190350771D02*
X128807785Y-188850771D01*
X128807785Y-190279343D02*
X128664928Y-190350771D01*
X128379214Y-190350771D01*
X128236356Y-190279343D01*
X128164928Y-190207914D01*
X128093499Y-190065057D01*
X128093499Y-189636486D01*
X128164928Y-189493629D01*
X128236356Y-189422200D01*
X128379214Y-189350771D01*
X128664928Y-189350771D01*
X128807785Y-189422200D01*
X131522071Y-190350771D02*
X131022071Y-189636486D01*
X130664928Y-190350771D02*
X130664928Y-188850771D01*
X131236356Y-188850771D01*
X131379214Y-188922200D01*
X131450642Y-188993629D01*
X131522071Y-189136486D01*
X131522071Y-189350771D01*
X131450642Y-189493629D01*
X131379214Y-189565057D01*
X131236356Y-189636486D01*
X130664928Y-189636486D01*
X132736356Y-190279343D02*
X132593499Y-190350771D01*
X132307785Y-190350771D01*
X132164928Y-190279343D01*
X132093499Y-190136486D01*
X132093499Y-189565057D01*
X132164928Y-189422200D01*
X132307785Y-189350771D01*
X132593499Y-189350771D01*
X132736356Y-189422200D01*
X132807785Y-189565057D01*
X132807785Y-189707914D01*
X132093499Y-189850771D01*
X133307785Y-189350771D02*
X133664928Y-190350771D01*
X134022070Y-189350771D01*
X135664927Y-188993629D02*
X135736356Y-188922200D01*
X135879213Y-188850771D01*
X136236356Y-188850771D01*
X136379213Y-188922200D01*
X136450642Y-188993629D01*
X136522070Y-189136486D01*
X136522070Y-189279343D01*
X136450642Y-189493629D01*
X135593499Y-190350771D01*
X136522070Y-190350771D01*
X138236355Y-188993629D02*
X138307784Y-188922200D01*
X138450641Y-188850771D01*
X138807784Y-188850771D01*
X138950641Y-188922200D01*
X139022070Y-188993629D01*
X139093498Y-189136486D01*
X139093498Y-189279343D01*
X139022070Y-189493629D01*
X138164927Y-190350771D01*
X139093498Y-190350771D01*
X140022069Y-188850771D02*
X140164926Y-188850771D01*
X140307783Y-188922200D01*
X140379212Y-188993629D01*
X140450641Y-189136486D01*
X140522069Y-189422200D01*
X140522069Y-189779343D01*
X140450641Y-190065057D01*
X140379212Y-190207914D01*
X140307783Y-190279343D01*
X140164926Y-190350771D01*
X140022069Y-190350771D01*
X139879212Y-190279343D01*
X139807783Y-190207914D01*
X139736355Y-190065057D01*
X139664926Y-189779343D01*
X139664926Y-189422200D01*
X139736355Y-189136486D01*
X139807783Y-188993629D01*
X139879212Y-188922200D01*
X140022069Y-188850771D01*
X141950640Y-190350771D02*
X141093497Y-190350771D01*
X141522069Y-190350771D02*
X141522069Y-188850771D01*
X141379212Y-189065057D01*
X141236354Y-189207914D01*
X141093497Y-189279343D01*
X142807783Y-189493629D02*
X142664925Y-189422200D01*
X142593497Y-189350771D01*
X142522068Y-189207914D01*
X142522068Y-189136486D01*
X142593497Y-188993629D01*
X142664925Y-188922200D01*
X142807783Y-188850771D01*
X143093497Y-188850771D01*
X143236354Y-188922200D01*
X143307783Y-188993629D01*
X143379211Y-189136486D01*
X143379211Y-189207914D01*
X143307783Y-189350771D01*
X143236354Y-189422200D01*
X143093497Y-189493629D01*
X142807783Y-189493629D01*
X142664925Y-189565057D01*
X142593497Y-189636486D01*
X142522068Y-189779343D01*
X142522068Y-190065057D01*
X142593497Y-190207914D01*
X142664925Y-190279343D01*
X142807783Y-190350771D01*
X143093497Y-190350771D01*
X143236354Y-190279343D01*
X143307783Y-190207914D01*
X143379211Y-190065057D01*
X143379211Y-189779343D01*
X143307783Y-189636486D01*
X143236354Y-189565057D01*
X143093497Y-189493629D01*
X145664925Y-189565057D02*
X145879211Y-189636486D01*
X145950639Y-189707914D01*
X146022068Y-189850771D01*
X146022068Y-190065057D01*
X145950639Y-190207914D01*
X145879211Y-190279343D01*
X145736353Y-190350771D01*
X145164925Y-190350771D01*
X145164925Y-188850771D01*
X145664925Y-188850771D01*
X145807782Y-188922200D01*
X145879211Y-188993629D01*
X145950639Y-189136486D01*
X145950639Y-189279343D01*
X145879211Y-189422200D01*
X145807782Y-189493629D01*
X145664925Y-189565057D01*
X145164925Y-189565057D01*
X147307782Y-190350771D02*
X147307782Y-189565057D01*
X147236353Y-189422200D01*
X147093496Y-189350771D01*
X146807782Y-189350771D01*
X146664925Y-189422200D01*
X147307782Y-190279343D02*
X147164925Y-190350771D01*
X146807782Y-190350771D01*
X146664925Y-190279343D01*
X146593496Y-190136486D01*
X146593496Y-189993629D01*
X146664925Y-189850771D01*
X146807782Y-189779343D01*
X147164925Y-189779343D01*
X147307782Y-189707914D01*
X148664925Y-190279343D02*
X148522068Y-190350771D01*
X148236354Y-190350771D01*
X148093496Y-190279343D01*
X148022068Y-190207914D01*
X147950639Y-190065057D01*
X147950639Y-189636486D01*
X148022068Y-189493629D01*
X148093496Y-189422200D01*
X148236354Y-189350771D01*
X148522068Y-189350771D01*
X148664925Y-189422200D01*
X149307782Y-190350771D02*
X149307782Y-188850771D01*
X149450639Y-189779343D02*
X149879210Y-190350771D01*
X149879210Y-189350771D02*
X149307782Y-189922200D01*
X151164925Y-189350771D02*
X151164925Y-190350771D01*
X150522068Y-189350771D02*
X150522068Y-190136486D01*
X150593496Y-190279343D01*
X150736354Y-190350771D01*
X150950639Y-190350771D01*
X151093496Y-190279343D01*
X151164925Y-190207914D01*
X151879211Y-189350771D02*
X151879211Y-190850771D01*
X151879211Y-189422200D02*
X152022068Y-189350771D01*
X152307782Y-189350771D01*
X152450639Y-189422200D01*
X152522068Y-189493629D01*
X152593497Y-189636486D01*
X152593497Y-190065057D01*
X152522068Y-190207914D01*
X152450639Y-190279343D01*
X152307782Y-190350771D01*
X152022068Y-190350771D01*
X151879211Y-190279343D01*
X113450643Y-192900771D02*
X113450643Y-191400771D01*
X113950643Y-192472200D01*
X114450643Y-191400771D01*
X114450643Y-192900771D01*
X115807786Y-192900771D02*
X115807786Y-192115057D01*
X115736357Y-191972200D01*
X115593500Y-191900771D01*
X115307786Y-191900771D01*
X115164929Y-191972200D01*
X115807786Y-192829343D02*
X115664929Y-192900771D01*
X115307786Y-192900771D01*
X115164929Y-192829343D01*
X115093500Y-192686486D01*
X115093500Y-192543629D01*
X115164929Y-192400771D01*
X115307786Y-192329343D01*
X115664929Y-192329343D01*
X115807786Y-192257914D01*
X116522072Y-192900771D02*
X116522072Y-191900771D01*
X116522072Y-192186486D02*
X116593500Y-192043629D01*
X116664929Y-191972200D01*
X116807786Y-191900771D01*
X116950643Y-191900771D01*
X117379214Y-192829343D02*
X117522071Y-192900771D01*
X117807786Y-192900771D01*
X117950643Y-192829343D01*
X118022071Y-192686486D01*
X118022071Y-192615057D01*
X117950643Y-192472200D01*
X117807786Y-192400771D01*
X117593500Y-192400771D01*
X117450643Y-192329343D01*
X117379214Y-192186486D01*
X117379214Y-192115057D01*
X117450643Y-191972200D01*
X117593500Y-191900771D01*
X117807786Y-191900771D01*
X117950643Y-191972200D01*
X120664929Y-192900771D02*
X120164929Y-192186486D01*
X119807786Y-192900771D02*
X119807786Y-191400771D01*
X120379214Y-191400771D01*
X120522072Y-191472200D01*
X120593500Y-191543629D01*
X120664929Y-191686486D01*
X120664929Y-191900771D01*
X120593500Y-192043629D01*
X120522072Y-192115057D01*
X120379214Y-192186486D01*
X119807786Y-192186486D01*
X121522072Y-192900771D02*
X121379214Y-192829343D01*
X121307786Y-192757914D01*
X121236357Y-192615057D01*
X121236357Y-192186486D01*
X121307786Y-192043629D01*
X121379214Y-191972200D01*
X121522072Y-191900771D01*
X121736357Y-191900771D01*
X121879214Y-191972200D01*
X121950643Y-192043629D01*
X122022072Y-192186486D01*
X122022072Y-192615057D01*
X121950643Y-192757914D01*
X121879214Y-192829343D01*
X121736357Y-192900771D01*
X121522072Y-192900771D01*
X122522072Y-191900771D02*
X122879215Y-192900771D01*
X123236357Y-191900771D01*
X124379214Y-192829343D02*
X124236357Y-192900771D01*
X123950643Y-192900771D01*
X123807786Y-192829343D01*
X123736357Y-192686486D01*
X123736357Y-192115057D01*
X123807786Y-191972200D01*
X123950643Y-191900771D01*
X124236357Y-191900771D01*
X124379214Y-191972200D01*
X124450643Y-192115057D01*
X124450643Y-192257914D01*
X123736357Y-192400771D01*
X125093500Y-192900771D02*
X125093500Y-191900771D01*
X125093500Y-192186486D02*
X125164928Y-192043629D01*
X125236357Y-191972200D01*
X125379214Y-191900771D01*
X125522071Y-191900771D01*
X127093499Y-191543629D02*
X127164928Y-191472200D01*
X127307785Y-191400771D01*
X127664928Y-191400771D01*
X127807785Y-191472200D01*
X127879214Y-191543629D01*
X127950642Y-191686486D01*
X127950642Y-191829343D01*
X127879214Y-192043629D01*
X127022071Y-192900771D01*
X127950642Y-192900771D01*
X128879213Y-191400771D02*
X129022070Y-191400771D01*
X129164927Y-191472200D01*
X129236356Y-191543629D01*
X129307785Y-191686486D01*
X129379213Y-191972200D01*
X129379213Y-192329343D01*
X129307785Y-192615057D01*
X129236356Y-192757914D01*
X129164927Y-192829343D01*
X129022070Y-192900771D01*
X128879213Y-192900771D01*
X128736356Y-192829343D01*
X128664927Y-192757914D01*
X128593499Y-192615057D01*
X128522070Y-192329343D01*
X128522070Y-191972200D01*
X128593499Y-191686486D01*
X128664927Y-191543629D01*
X128736356Y-191472200D01*
X128879213Y-191400771D01*
X130807784Y-192900771D02*
X129950641Y-192900771D01*
X130379213Y-192900771D02*
X130379213Y-191400771D01*
X130236356Y-191615057D01*
X130093498Y-191757914D01*
X129950641Y-191829343D01*
X131664927Y-192043629D02*
X131522069Y-191972200D01*
X131450641Y-191900771D01*
X131379212Y-191757914D01*
X131379212Y-191686486D01*
X131450641Y-191543629D01*
X131522069Y-191472200D01*
X131664927Y-191400771D01*
X131950641Y-191400771D01*
X132093498Y-191472200D01*
X132164927Y-191543629D01*
X132236355Y-191686486D01*
X132236355Y-191757914D01*
X132164927Y-191900771D01*
X132093498Y-191972200D01*
X131950641Y-192043629D01*
X131664927Y-192043629D01*
X131522069Y-192115057D01*
X131450641Y-192186486D01*
X131379212Y-192329343D01*
X131379212Y-192615057D01*
X131450641Y-192757914D01*
X131522069Y-192829343D01*
X131664927Y-192900771D01*
X131950641Y-192900771D01*
X132093498Y-192829343D01*
X132164927Y-192757914D01*
X132236355Y-192615057D01*
X132236355Y-192329343D01*
X132164927Y-192186486D01*
X132093498Y-192115057D01*
X131950641Y-192043629D01*
X113450643Y-195450771D02*
X113450643Y-193950771D01*
X113950643Y-195022200D01*
X114450643Y-193950771D01*
X114450643Y-195450771D01*
X115164929Y-195450771D02*
X115164929Y-194450771D01*
X115164929Y-193950771D02*
X115093500Y-194022200D01*
X115164929Y-194093629D01*
X115236357Y-194022200D01*
X115164929Y-193950771D01*
X115164929Y-194093629D01*
X115807786Y-195379343D02*
X115950643Y-195450771D01*
X116236358Y-195450771D01*
X116379215Y-195379343D01*
X116450643Y-195236486D01*
X116450643Y-195165057D01*
X116379215Y-195022200D01*
X116236358Y-194950771D01*
X116022072Y-194950771D01*
X115879215Y-194879343D01*
X115807786Y-194736486D01*
X115807786Y-194665057D01*
X115879215Y-194522200D01*
X116022072Y-194450771D01*
X116236358Y-194450771D01*
X116379215Y-194522200D01*
X117022072Y-195379343D02*
X117164929Y-195450771D01*
X117450644Y-195450771D01*
X117593501Y-195379343D01*
X117664929Y-195236486D01*
X117664929Y-195165057D01*
X117593501Y-195022200D01*
X117450644Y-194950771D01*
X117236358Y-194950771D01*
X117093501Y-194879343D01*
X117022072Y-194736486D01*
X117022072Y-194665057D01*
X117093501Y-194522200D01*
X117236358Y-194450771D01*
X117450644Y-194450771D01*
X117593501Y-194522200D01*
X118522073Y-195450771D02*
X118379215Y-195379343D01*
X118307787Y-195307914D01*
X118236358Y-195165057D01*
X118236358Y-194736486D01*
X118307787Y-194593629D01*
X118379215Y-194522200D01*
X118522073Y-194450771D01*
X118736358Y-194450771D01*
X118879215Y-194522200D01*
X118950644Y-194593629D01*
X119022073Y-194736486D01*
X119022073Y-195165057D01*
X118950644Y-195307914D01*
X118879215Y-195379343D01*
X118736358Y-195450771D01*
X118522073Y-195450771D01*
X120307787Y-194450771D02*
X120307787Y-195450771D01*
X119664930Y-194450771D02*
X119664930Y-195236486D01*
X119736358Y-195379343D01*
X119879216Y-195450771D01*
X120093501Y-195450771D01*
X120236358Y-195379343D01*
X120307787Y-195307914D01*
X121022073Y-195450771D02*
X121022073Y-194450771D01*
X121022073Y-194736486D02*
X121093501Y-194593629D01*
X121164930Y-194522200D01*
X121307787Y-194450771D01*
X121450644Y-194450771D01*
X121950644Y-195450771D02*
X121950644Y-194450771D01*
X121950644Y-193950771D02*
X121879215Y-194022200D01*
X121950644Y-194093629D01*
X122022072Y-194022200D01*
X121950644Y-193950771D01*
X121950644Y-194093629D01*
X123736358Y-195379343D02*
X123950644Y-195450771D01*
X124307787Y-195450771D01*
X124450644Y-195379343D01*
X124522073Y-195307914D01*
X124593501Y-195165057D01*
X124593501Y-195022200D01*
X124522073Y-194879343D01*
X124450644Y-194807914D01*
X124307787Y-194736486D01*
X124022073Y-194665057D01*
X123879215Y-194593629D01*
X123807787Y-194522200D01*
X123736358Y-194379343D01*
X123736358Y-194236486D01*
X123807787Y-194093629D01*
X123879215Y-194022200D01*
X124022073Y-193950771D01*
X124379215Y-193950771D01*
X124593501Y-194022200D01*
X126450644Y-195450771D02*
X126379215Y-195450771D01*
X126236358Y-195379343D01*
X126022072Y-195165057D01*
X125664929Y-194736486D01*
X125522072Y-194522200D01*
X125450644Y-194307914D01*
X125450644Y-194165057D01*
X125522072Y-194022200D01*
X125664929Y-193950771D01*
X125736358Y-193950771D01*
X125879215Y-194022200D01*
X125950644Y-194165057D01*
X125950644Y-194236486D01*
X125879215Y-194379343D01*
X125807786Y-194450771D01*
X125379215Y-194736486D01*
X125307786Y-194807914D01*
X125236358Y-194950771D01*
X125236358Y-195165057D01*
X125307786Y-195307914D01*
X125379215Y-195379343D01*
X125522072Y-195450771D01*
X125736358Y-195450771D01*
X125879215Y-195379343D01*
X125950644Y-195307914D01*
X126164929Y-195022200D01*
X126236358Y-194807914D01*
X126236358Y-194665057D01*
X126879215Y-193950771D02*
X127736358Y-193950771D01*
X127307787Y-195450771D02*
X127307787Y-193950771D01*
X113879214Y-196500771D02*
X113879214Y-197572200D01*
X113807786Y-197786486D01*
X113664929Y-197929343D01*
X113450643Y-198000771D01*
X113307786Y-198000771D01*
X115236357Y-197000771D02*
X115236357Y-198000771D01*
X114593500Y-197000771D02*
X114593500Y-197786486D01*
X114664928Y-197929343D01*
X114807786Y-198000771D01*
X115022071Y-198000771D01*
X115164928Y-197929343D01*
X115236357Y-197857914D01*
X116593500Y-198000771D02*
X116593500Y-196500771D01*
X116593500Y-197929343D02*
X116450643Y-198000771D01*
X116164929Y-198000771D01*
X116022071Y-197929343D01*
X115950643Y-197857914D01*
X115879214Y-197715057D01*
X115879214Y-197286486D01*
X115950643Y-197143629D01*
X116022071Y-197072200D01*
X116164929Y-197000771D01*
X116450643Y-197000771D01*
X116593500Y-197072200D01*
X117950643Y-198000771D02*
X117950643Y-197215057D01*
X117879214Y-197072200D01*
X117736357Y-197000771D01*
X117450643Y-197000771D01*
X117307786Y-197072200D01*
X117950643Y-197929343D02*
X117807786Y-198000771D01*
X117450643Y-198000771D01*
X117307786Y-197929343D01*
X117236357Y-197786486D01*
X117236357Y-197643629D01*
X117307786Y-197500771D01*
X117450643Y-197429343D01*
X117807786Y-197429343D01*
X117950643Y-197357914D01*
X118664929Y-198000771D02*
X118664929Y-196500771D01*
X119307786Y-198000771D02*
X119307786Y-197215057D01*
X119236357Y-197072200D01*
X119093500Y-197000771D01*
X118879215Y-197000771D01*
X118736357Y-197072200D01*
X118664929Y-197143629D01*
X121664929Y-197215057D02*
X121879215Y-197286486D01*
X121950643Y-197357914D01*
X122022072Y-197500771D01*
X122022072Y-197715057D01*
X121950643Y-197857914D01*
X121879215Y-197929343D01*
X121736357Y-198000771D01*
X121164929Y-198000771D01*
X121164929Y-196500771D01*
X121664929Y-196500771D01*
X121807786Y-196572200D01*
X121879215Y-196643629D01*
X121950643Y-196786486D01*
X121950643Y-196929343D01*
X121879215Y-197072200D01*
X121807786Y-197143629D01*
X121664929Y-197215057D01*
X121164929Y-197215057D01*
X123307786Y-197000771D02*
X123307786Y-198000771D01*
X122664929Y-197000771D02*
X122664929Y-197786486D01*
X122736357Y-197929343D01*
X122879215Y-198000771D01*
X123093500Y-198000771D01*
X123236357Y-197929343D01*
X123307786Y-197857914D01*
X124664929Y-198000771D02*
X124664929Y-196500771D01*
X124664929Y-197929343D02*
X124522072Y-198000771D01*
X124236358Y-198000771D01*
X124093500Y-197929343D01*
X124022072Y-197857914D01*
X123950643Y-197715057D01*
X123950643Y-197286486D01*
X124022072Y-197143629D01*
X124093500Y-197072200D01*
X124236358Y-197000771D01*
X124522072Y-197000771D01*
X124664929Y-197072200D01*
X126022072Y-198000771D02*
X126022072Y-196500771D01*
X126022072Y-197929343D02*
X125879215Y-198000771D01*
X125593501Y-198000771D01*
X125450643Y-197929343D01*
X125379215Y-197857914D01*
X125307786Y-197715057D01*
X125307786Y-197286486D01*
X125379215Y-197143629D01*
X125450643Y-197072200D01*
X125593501Y-197000771D01*
X125879215Y-197000771D01*
X126022072Y-197072200D01*
X127379215Y-198000771D02*
X127379215Y-197215057D01*
X127307786Y-197072200D01*
X127164929Y-197000771D01*
X126879215Y-197000771D01*
X126736358Y-197072200D01*
X127379215Y-197929343D02*
X127236358Y-198000771D01*
X126879215Y-198000771D01*
X126736358Y-197929343D01*
X126664929Y-197786486D01*
X126664929Y-197643629D01*
X126736358Y-197500771D01*
X126879215Y-197429343D01*
X127236358Y-197429343D01*
X127379215Y-197357914D01*
X128093501Y-198000771D02*
X128093501Y-196500771D01*
X128736358Y-198000771D02*
X128736358Y-197215057D01*
X128664929Y-197072200D01*
X128522072Y-197000771D01*
X128307787Y-197000771D01*
X128164929Y-197072200D01*
X128093501Y-197143629D01*
X129522072Y-197929343D02*
X129522072Y-198000771D01*
X129450644Y-198143629D01*
X129379215Y-198215057D01*
X131236358Y-197572200D02*
X131950644Y-197572200D01*
X131093501Y-198000771D02*
X131593501Y-196500771D01*
X132093501Y-198000771D01*
X132593501Y-197000771D02*
X132593501Y-198000771D01*
X132593501Y-197143629D02*
X132664929Y-197072200D01*
X132807787Y-197000771D01*
X133022072Y-197000771D01*
X133164929Y-197072200D01*
X133236358Y-197215057D01*
X133236358Y-198000771D01*
X134593501Y-198000771D02*
X134593501Y-196500771D01*
X134593501Y-197929343D02*
X134450644Y-198000771D01*
X134164930Y-198000771D01*
X134022072Y-197929343D01*
X133950644Y-197857914D01*
X133879215Y-197715057D01*
X133879215Y-197286486D01*
X133950644Y-197143629D01*
X134022072Y-197072200D01*
X134164930Y-197000771D01*
X134450644Y-197000771D01*
X134593501Y-197072200D01*
X135307787Y-198000771D02*
X135307787Y-197000771D01*
X135307787Y-197286486D02*
X135379215Y-197143629D01*
X135450644Y-197072200D01*
X135593501Y-197000771D01*
X135736358Y-197000771D01*
X136807786Y-197929343D02*
X136664929Y-198000771D01*
X136379215Y-198000771D01*
X136236358Y-197929343D01*
X136164929Y-197786486D01*
X136164929Y-197215057D01*
X136236358Y-197072200D01*
X136379215Y-197000771D01*
X136664929Y-197000771D01*
X136807786Y-197072200D01*
X136879215Y-197215057D01*
X136879215Y-197357914D01*
X136164929Y-197500771D01*
X137379215Y-197000771D02*
X137664929Y-198000771D01*
X137950643Y-197286486D01*
X138236358Y-198000771D01*
X138522072Y-197000771D01*
X140022072Y-196500771D02*
X140522072Y-198000771D01*
X141022072Y-196500771D01*
X142164929Y-198000771D02*
X142164929Y-197215057D01*
X142093500Y-197072200D01*
X141950643Y-197000771D01*
X141664929Y-197000771D01*
X141522072Y-197072200D01*
X142164929Y-197929343D02*
X142022072Y-198000771D01*
X141664929Y-198000771D01*
X141522072Y-197929343D01*
X141450643Y-197786486D01*
X141450643Y-197643629D01*
X141522072Y-197500771D01*
X141664929Y-197429343D01*
X142022072Y-197429343D01*
X142164929Y-197357914D01*
X142879215Y-197000771D02*
X142879215Y-198000771D01*
X142879215Y-197143629D02*
X142950643Y-197072200D01*
X143093501Y-197000771D01*
X143307786Y-197000771D01*
X143450643Y-197072200D01*
X143522072Y-197215057D01*
X143522072Y-198000771D01*
X145379215Y-198000771D02*
X145379215Y-196500771D01*
X145379215Y-197215057D02*
X146236358Y-197215057D01*
X146236358Y-198000771D02*
X146236358Y-196500771D01*
X147164930Y-198000771D02*
X147022072Y-197929343D01*
X146950644Y-197857914D01*
X146879215Y-197715057D01*
X146879215Y-197286486D01*
X146950644Y-197143629D01*
X147022072Y-197072200D01*
X147164930Y-197000771D01*
X147379215Y-197000771D01*
X147522072Y-197072200D01*
X147593501Y-197143629D01*
X147664930Y-197286486D01*
X147664930Y-197715057D01*
X147593501Y-197857914D01*
X147522072Y-197929343D01*
X147379215Y-198000771D01*
X147164930Y-198000771D01*
X148307787Y-198000771D02*
X148307787Y-197000771D01*
X148307787Y-197286486D02*
X148379215Y-197143629D01*
X148450644Y-197072200D01*
X148593501Y-197000771D01*
X148736358Y-197000771D01*
X149236358Y-197000771D02*
X149236358Y-198000771D01*
X149236358Y-197143629D02*
X149307786Y-197072200D01*
X149450644Y-197000771D01*
X149664929Y-197000771D01*
X149807786Y-197072200D01*
X149879215Y-197215057D01*
X149879215Y-198000771D01*
D11*
X129487991Y-176040748D02*
X128278467Y-176040748D01*
X128157515Y-177250271D01*
X128278467Y-177129319D01*
X128520372Y-177008367D01*
X129125134Y-177008367D01*
X129367038Y-177129319D01*
X129487991Y-177250271D01*
X129608943Y-177492176D01*
X129608943Y-178096938D01*
X129487991Y-178338843D01*
X129367038Y-178459795D01*
X129125134Y-178580748D01*
X128520372Y-178580748D01*
X128278467Y-178459795D01*
X128157515Y-178338843D01*
X130334658Y-176040748D02*
X131181324Y-178580748D01*
X132027991Y-176040748D01*
D12*
X146835929Y-117762571D02*
X145978786Y-117762571D01*
X146407358Y-117762571D02*
X146407358Y-116262571D01*
X146264501Y-116476857D01*
X146121643Y-116619714D01*
X145978786Y-116691143D01*
X147407357Y-116405429D02*
X147478786Y-116334000D01*
X147621643Y-116262571D01*
X147978786Y-116262571D01*
X148121643Y-116334000D01*
X148193072Y-116405429D01*
X148264500Y-116548286D01*
X148264500Y-116691143D01*
X148193072Y-116905429D01*
X147335929Y-117762571D01*
X148264500Y-117762571D01*
X148693071Y-116262571D02*
X149193071Y-117762571D01*
X149693071Y-116262571D01*
X146800214Y-118884000D02*
X146657357Y-118812571D01*
X146443071Y-118812571D01*
X146228786Y-118884000D01*
X146085928Y-119026857D01*
X146014500Y-119169714D01*
X145943071Y-119455429D01*
X145943071Y-119669714D01*
X146014500Y-119955429D01*
X146085928Y-120098286D01*
X146228786Y-120241143D01*
X146443071Y-120312571D01*
X146585928Y-120312571D01*
X146800214Y-120241143D01*
X146871643Y-120169714D01*
X146871643Y-119669714D01*
X146585928Y-119669714D01*
X147514500Y-119312571D02*
X147514500Y-120312571D01*
X147514500Y-119455429D02*
X147585928Y-119384000D01*
X147728786Y-119312571D01*
X147943071Y-119312571D01*
X148085928Y-119384000D01*
X148157357Y-119526857D01*
X148157357Y-120312571D01*
X149514500Y-120312571D02*
X149514500Y-118812571D01*
X149514500Y-120241143D02*
X149371643Y-120312571D01*
X149085929Y-120312571D01*
X148943071Y-120241143D01*
X148871643Y-120169714D01*
X148800214Y-120026857D01*
X148800214Y-119598286D01*
X148871643Y-119455429D01*
X148943071Y-119384000D01*
X149085929Y-119312571D01*
X149371643Y-119312571D01*
X149514500Y-119384000D01*
X146300214Y-122791143D02*
X146514500Y-122862571D01*
X146871643Y-122862571D01*
X147014500Y-122791143D01*
X147085929Y-122719714D01*
X147157357Y-122576857D01*
X147157357Y-122434000D01*
X147085929Y-122291143D01*
X147014500Y-122219714D01*
X146871643Y-122148286D01*
X146585929Y-122076857D01*
X146443071Y-122005429D01*
X146371643Y-121934000D01*
X146300214Y-121791143D01*
X146300214Y-121648286D01*
X146371643Y-121505429D01*
X146443071Y-121434000D01*
X146585929Y-121362571D01*
X146943071Y-121362571D01*
X147157357Y-121434000D01*
X147800214Y-122862571D02*
X147800214Y-121862571D01*
X147800214Y-121362571D02*
X147728785Y-121434000D01*
X147800214Y-121505429D01*
X147871642Y-121434000D01*
X147800214Y-121362571D01*
X147800214Y-121505429D01*
X149157357Y-121862571D02*
X149157357Y-123076857D01*
X149085928Y-123219714D01*
X149014500Y-123291143D01*
X148871643Y-123362571D01*
X148657357Y-123362571D01*
X148514500Y-123291143D01*
X149157357Y-122791143D02*
X149014500Y-122862571D01*
X148728786Y-122862571D01*
X148585928Y-122791143D01*
X148514500Y-122719714D01*
X148443071Y-122576857D01*
X148443071Y-122148286D01*
X148514500Y-122005429D01*
X148585928Y-121934000D01*
X148728786Y-121862571D01*
X149014500Y-121862571D01*
X149157357Y-121934000D01*
X146645429Y-130081571D02*
X145788286Y-130081571D01*
X146216858Y-130081571D02*
X146216858Y-128581571D01*
X146074001Y-128795857D01*
X145931143Y-128938714D01*
X145788286Y-129010143D01*
X147216857Y-128724429D02*
X147288286Y-128653000D01*
X147431143Y-128581571D01*
X147788286Y-128581571D01*
X147931143Y-128653000D01*
X148002572Y-128724429D01*
X148074000Y-128867286D01*
X148074000Y-129010143D01*
X148002572Y-129224429D01*
X147145429Y-130081571D01*
X148074000Y-130081571D01*
X148502571Y-128581571D02*
X149002571Y-130081571D01*
X149502571Y-128581571D01*
X146609714Y-131203000D02*
X146466857Y-131131571D01*
X146252571Y-131131571D01*
X146038286Y-131203000D01*
X145895428Y-131345857D01*
X145824000Y-131488714D01*
X145752571Y-131774429D01*
X145752571Y-131988714D01*
X145824000Y-132274429D01*
X145895428Y-132417286D01*
X146038286Y-132560143D01*
X146252571Y-132631571D01*
X146395428Y-132631571D01*
X146609714Y-132560143D01*
X146681143Y-132488714D01*
X146681143Y-131988714D01*
X146395428Y-131988714D01*
X147324000Y-131631571D02*
X147324000Y-132631571D01*
X147324000Y-131774429D02*
X147395428Y-131703000D01*
X147538286Y-131631571D01*
X147752571Y-131631571D01*
X147895428Y-131703000D01*
X147966857Y-131845857D01*
X147966857Y-132631571D01*
X149324000Y-132631571D02*
X149324000Y-131131571D01*
X149324000Y-132560143D02*
X149181143Y-132631571D01*
X148895429Y-132631571D01*
X148752571Y-132560143D01*
X148681143Y-132488714D01*
X148609714Y-132345857D01*
X148609714Y-131917286D01*
X148681143Y-131774429D01*
X148752571Y-131703000D01*
X148895429Y-131631571D01*
X149181143Y-131631571D01*
X149324000Y-131703000D01*
X146109714Y-135110143D02*
X146324000Y-135181571D01*
X146681143Y-135181571D01*
X146824000Y-135110143D01*
X146895429Y-135038714D01*
X146966857Y-134895857D01*
X146966857Y-134753000D01*
X146895429Y-134610143D01*
X146824000Y-134538714D01*
X146681143Y-134467286D01*
X146395429Y-134395857D01*
X146252571Y-134324429D01*
X146181143Y-134253000D01*
X146109714Y-134110143D01*
X146109714Y-133967286D01*
X146181143Y-133824429D01*
X146252571Y-133753000D01*
X146395429Y-133681571D01*
X146752571Y-133681571D01*
X146966857Y-133753000D01*
X147609714Y-135181571D02*
X147609714Y-134181571D01*
X147609714Y-133681571D02*
X147538285Y-133753000D01*
X147609714Y-133824429D01*
X147681142Y-133753000D01*
X147609714Y-133681571D01*
X147609714Y-133824429D01*
X148966857Y-134181571D02*
X148966857Y-135395857D01*
X148895428Y-135538714D01*
X148824000Y-135610143D01*
X148681143Y-135681571D01*
X148466857Y-135681571D01*
X148324000Y-135610143D01*
X148966857Y-135110143D02*
X148824000Y-135181571D01*
X148538286Y-135181571D01*
X148395428Y-135110143D01*
X148324000Y-135038714D01*
X148252571Y-134895857D01*
X148252571Y-134467286D01*
X148324000Y-134324429D01*
X148395428Y-134253000D01*
X148538286Y-134181571D01*
X148824000Y-134181571D01*
X148966857Y-134253000D01*
X146581929Y-142337071D02*
X145724786Y-142337071D01*
X146153358Y-142337071D02*
X146153358Y-140837071D01*
X146010501Y-141051357D01*
X145867643Y-141194214D01*
X145724786Y-141265643D01*
X147153357Y-140979929D02*
X147224786Y-140908500D01*
X147367643Y-140837071D01*
X147724786Y-140837071D01*
X147867643Y-140908500D01*
X147939072Y-140979929D01*
X148010500Y-141122786D01*
X148010500Y-141265643D01*
X147939072Y-141479929D01*
X147081929Y-142337071D01*
X148010500Y-142337071D01*
X148439071Y-140837071D02*
X148939071Y-142337071D01*
X149439071Y-140837071D01*
X146546214Y-143458500D02*
X146403357Y-143387071D01*
X146189071Y-143387071D01*
X145974786Y-143458500D01*
X145831928Y-143601357D01*
X145760500Y-143744214D01*
X145689071Y-144029929D01*
X145689071Y-144244214D01*
X145760500Y-144529929D01*
X145831928Y-144672786D01*
X145974786Y-144815643D01*
X146189071Y-144887071D01*
X146331928Y-144887071D01*
X146546214Y-144815643D01*
X146617643Y-144744214D01*
X146617643Y-144244214D01*
X146331928Y-144244214D01*
X147260500Y-143887071D02*
X147260500Y-144887071D01*
X147260500Y-144029929D02*
X147331928Y-143958500D01*
X147474786Y-143887071D01*
X147689071Y-143887071D01*
X147831928Y-143958500D01*
X147903357Y-144101357D01*
X147903357Y-144887071D01*
X149260500Y-144887071D02*
X149260500Y-143387071D01*
X149260500Y-144815643D02*
X149117643Y-144887071D01*
X148831929Y-144887071D01*
X148689071Y-144815643D01*
X148617643Y-144744214D01*
X148546214Y-144601357D01*
X148546214Y-144172786D01*
X148617643Y-144029929D01*
X148689071Y-143958500D01*
X148831929Y-143887071D01*
X149117643Y-143887071D01*
X149260500Y-143958500D01*
X146046214Y-147365643D02*
X146260500Y-147437071D01*
X146617643Y-147437071D01*
X146760500Y-147365643D01*
X146831929Y-147294214D01*
X146903357Y-147151357D01*
X146903357Y-147008500D01*
X146831929Y-146865643D01*
X146760500Y-146794214D01*
X146617643Y-146722786D01*
X146331929Y-146651357D01*
X146189071Y-146579929D01*
X146117643Y-146508500D01*
X146046214Y-146365643D01*
X146046214Y-146222786D01*
X146117643Y-146079929D01*
X146189071Y-146008500D01*
X146331929Y-145937071D01*
X146689071Y-145937071D01*
X146903357Y-146008500D01*
X147546214Y-147437071D02*
X147546214Y-146437071D01*
X147546214Y-145937071D02*
X147474785Y-146008500D01*
X147546214Y-146079929D01*
X147617642Y-146008500D01*
X147546214Y-145937071D01*
X147546214Y-146079929D01*
X148903357Y-146437071D02*
X148903357Y-147651357D01*
X148831928Y-147794214D01*
X148760500Y-147865643D01*
X148617643Y-147937071D01*
X148403357Y-147937071D01*
X148260500Y-147865643D01*
X148903357Y-147365643D02*
X148760500Y-147437071D01*
X148474786Y-147437071D01*
X148331928Y-147365643D01*
X148260500Y-147294214D01*
X148189071Y-147151357D01*
X148189071Y-146722786D01*
X148260500Y-146579929D01*
X148331928Y-146508500D01*
X148474786Y-146437071D01*
X148760500Y-146437071D01*
X148903357Y-146508500D01*
X146772429Y-154529071D02*
X145915286Y-154529071D01*
X146343858Y-154529071D02*
X146343858Y-153029071D01*
X146201001Y-153243357D01*
X146058143Y-153386214D01*
X145915286Y-153457643D01*
X147343857Y-153171929D02*
X147415286Y-153100500D01*
X147558143Y-153029071D01*
X147915286Y-153029071D01*
X148058143Y-153100500D01*
X148129572Y-153171929D01*
X148201000Y-153314786D01*
X148201000Y-153457643D01*
X148129572Y-153671929D01*
X147272429Y-154529071D01*
X148201000Y-154529071D01*
X148629571Y-153029071D02*
X149129571Y-154529071D01*
X149629571Y-153029071D01*
X146736714Y-155650500D02*
X146593857Y-155579071D01*
X146379571Y-155579071D01*
X146165286Y-155650500D01*
X146022428Y-155793357D01*
X145951000Y-155936214D01*
X145879571Y-156221929D01*
X145879571Y-156436214D01*
X145951000Y-156721929D01*
X146022428Y-156864786D01*
X146165286Y-157007643D01*
X146379571Y-157079071D01*
X146522428Y-157079071D01*
X146736714Y-157007643D01*
X146808143Y-156936214D01*
X146808143Y-156436214D01*
X146522428Y-156436214D01*
X147451000Y-156079071D02*
X147451000Y-157079071D01*
X147451000Y-156221929D02*
X147522428Y-156150500D01*
X147665286Y-156079071D01*
X147879571Y-156079071D01*
X148022428Y-156150500D01*
X148093857Y-156293357D01*
X148093857Y-157079071D01*
X149451000Y-157079071D02*
X149451000Y-155579071D01*
X149451000Y-157007643D02*
X149308143Y-157079071D01*
X149022429Y-157079071D01*
X148879571Y-157007643D01*
X148808143Y-156936214D01*
X148736714Y-156793357D01*
X148736714Y-156364786D01*
X148808143Y-156221929D01*
X148879571Y-156150500D01*
X149022429Y-156079071D01*
X149308143Y-156079071D01*
X149451000Y-156150500D01*
X146236714Y-159557643D02*
X146451000Y-159629071D01*
X146808143Y-159629071D01*
X146951000Y-159557643D01*
X147022429Y-159486214D01*
X147093857Y-159343357D01*
X147093857Y-159200500D01*
X147022429Y-159057643D01*
X146951000Y-158986214D01*
X146808143Y-158914786D01*
X146522429Y-158843357D01*
X146379571Y-158771929D01*
X146308143Y-158700500D01*
X146236714Y-158557643D01*
X146236714Y-158414786D01*
X146308143Y-158271929D01*
X146379571Y-158200500D01*
X146522429Y-158129071D01*
X146879571Y-158129071D01*
X147093857Y-158200500D01*
X147736714Y-159629071D02*
X147736714Y-158629071D01*
X147736714Y-158129071D02*
X147665285Y-158200500D01*
X147736714Y-158271929D01*
X147808142Y-158200500D01*
X147736714Y-158129071D01*
X147736714Y-158271929D01*
X149093857Y-158629071D02*
X149093857Y-159843357D01*
X149022428Y-159986214D01*
X148951000Y-160057643D01*
X148808143Y-160129071D01*
X148593857Y-160129071D01*
X148451000Y-160057643D01*
X149093857Y-159557643D02*
X148951000Y-159629071D01*
X148665286Y-159629071D01*
X148522428Y-159557643D01*
X148451000Y-159486214D01*
X148379571Y-159343357D01*
X148379571Y-158914786D01*
X148451000Y-158771929D01*
X148522428Y-158700500D01*
X148665286Y-158629071D01*
X148951000Y-158629071D01*
X149093857Y-158700500D01*
D11*
X147510500Y-184512857D02*
X147389548Y-184754762D01*
X147389548Y-185117619D01*
X147510500Y-185480476D01*
X147752405Y-185722381D01*
X147994310Y-185843333D01*
X148478119Y-185964285D01*
X148840976Y-185964285D01*
X149324786Y-185843333D01*
X149566690Y-185722381D01*
X149808595Y-185480476D01*
X149929548Y-185117619D01*
X149929548Y-184875714D01*
X149808595Y-184512857D01*
X149687643Y-184391905D01*
X148840976Y-184391905D01*
X148840976Y-184875714D01*
X148236214Y-183303333D02*
X149929548Y-183303333D01*
X148478119Y-183303333D02*
X148357167Y-183182381D01*
X148236214Y-182940476D01*
X148236214Y-182577619D01*
X148357167Y-182335714D01*
X148599071Y-182214762D01*
X149929548Y-182214762D01*
X149929548Y-179916667D02*
X147389548Y-179916667D01*
X149808595Y-179916667D02*
X149929548Y-180158571D01*
X149929548Y-180642381D01*
X149808595Y-180884286D01*
X149687643Y-181005238D01*
X149445738Y-181126190D01*
X148720024Y-181126190D01*
X148478119Y-181005238D01*
X148357167Y-180884286D01*
X148236214Y-180642381D01*
X148236214Y-180158571D01*
X148357167Y-179916667D01*
X150183548Y-176832381D02*
X150183548Y-178283809D01*
X150183548Y-177558095D02*
X147643548Y-177558095D01*
X148006405Y-177800000D01*
X148248310Y-178041905D01*
X148369262Y-178283809D01*
X147885452Y-175864761D02*
X147764500Y-175743809D01*
X147643548Y-175501904D01*
X147643548Y-174897142D01*
X147764500Y-174655238D01*
X147885452Y-174534285D01*
X148127357Y-174413333D01*
X148369262Y-174413333D01*
X148732119Y-174534285D01*
X150183548Y-175985714D01*
X150183548Y-174413333D01*
X147643548Y-173687618D02*
X150183548Y-172840952D01*
X147643548Y-171994285D01*
D13*
X132524499Y-120269000D02*
X132439833Y-120353667D01*
X132185833Y-120438333D01*
X132016499Y-120438333D01*
X131762499Y-120353667D01*
X131593166Y-120184333D01*
X131508499Y-120015000D01*
X131423833Y-119676333D01*
X131423833Y-119422333D01*
X131508499Y-119083667D01*
X131593166Y-118914333D01*
X131762499Y-118745000D01*
X132016499Y-118660333D01*
X132185833Y-118660333D01*
X132439833Y-118745000D01*
X132524499Y-118829667D01*
X134048499Y-120438333D02*
X134048499Y-119507000D01*
X133963833Y-119337667D01*
X133794499Y-119253000D01*
X133455833Y-119253000D01*
X133286499Y-119337667D01*
X134048499Y-120353667D02*
X133879166Y-120438333D01*
X133455833Y-120438333D01*
X133286499Y-120353667D01*
X133201833Y-120184333D01*
X133201833Y-120015000D01*
X133286499Y-119845667D01*
X133455833Y-119761000D01*
X133879166Y-119761000D01*
X134048499Y-119676333D01*
X134895166Y-120438333D02*
X134895166Y-119253000D01*
X134895166Y-119422333D02*
X134979833Y-119337667D01*
X135149166Y-119253000D01*
X135403166Y-119253000D01*
X135572500Y-119337667D01*
X135657166Y-119507000D01*
X135657166Y-120438333D01*
X135657166Y-119507000D02*
X135741833Y-119337667D01*
X135911166Y-119253000D01*
X136165166Y-119253000D01*
X136334500Y-119337667D01*
X136419166Y-119507000D01*
X136419166Y-120438333D01*
X137943167Y-120353667D02*
X137773833Y-120438333D01*
X137435167Y-120438333D01*
X137265833Y-120353667D01*
X137181167Y-120184333D01*
X137181167Y-119507000D01*
X137265833Y-119337667D01*
X137435167Y-119253000D01*
X137773833Y-119253000D01*
X137943167Y-119337667D01*
X138027833Y-119507000D01*
X138027833Y-119676333D01*
X137181167Y-119845667D01*
X138789833Y-120438333D02*
X138789833Y-119253000D01*
X138789833Y-119591667D02*
X138874500Y-119422333D01*
X138959167Y-119337667D01*
X139128500Y-119253000D01*
X139297833Y-119253000D01*
X140652500Y-120438333D02*
X140652500Y-119507000D01*
X140567834Y-119337667D01*
X140398500Y-119253000D01*
X140059834Y-119253000D01*
X139890500Y-119337667D01*
X140652500Y-120353667D02*
X140483167Y-120438333D01*
X140059834Y-120438333D01*
X139890500Y-120353667D01*
X139805834Y-120184333D01*
X139805834Y-120015000D01*
X139890500Y-119845667D01*
X140059834Y-119761000D01*
X140483167Y-119761000D01*
X140652500Y-119676333D01*
X143615834Y-119253000D02*
X143615834Y-120438333D01*
X143192501Y-118575667D02*
X142769168Y-119845667D01*
X143869834Y-119845667D01*
X132397499Y-132715000D02*
X132312833Y-132799667D01*
X132058833Y-132884333D01*
X131889499Y-132884333D01*
X131635499Y-132799667D01*
X131466166Y-132630333D01*
X131381499Y-132461000D01*
X131296833Y-132122333D01*
X131296833Y-131868333D01*
X131381499Y-131529667D01*
X131466166Y-131360333D01*
X131635499Y-131191000D01*
X131889499Y-131106333D01*
X132058833Y-131106333D01*
X132312833Y-131191000D01*
X132397499Y-131275667D01*
X133921499Y-132884333D02*
X133921499Y-131953000D01*
X133836833Y-131783667D01*
X133667499Y-131699000D01*
X133328833Y-131699000D01*
X133159499Y-131783667D01*
X133921499Y-132799667D02*
X133752166Y-132884333D01*
X133328833Y-132884333D01*
X133159499Y-132799667D01*
X133074833Y-132630333D01*
X133074833Y-132461000D01*
X133159499Y-132291667D01*
X133328833Y-132207000D01*
X133752166Y-132207000D01*
X133921499Y-132122333D01*
X134768166Y-132884333D02*
X134768166Y-131699000D01*
X134768166Y-131868333D02*
X134852833Y-131783667D01*
X135022166Y-131699000D01*
X135276166Y-131699000D01*
X135445500Y-131783667D01*
X135530166Y-131953000D01*
X135530166Y-132884333D01*
X135530166Y-131953000D02*
X135614833Y-131783667D01*
X135784166Y-131699000D01*
X136038166Y-131699000D01*
X136207500Y-131783667D01*
X136292166Y-131953000D01*
X136292166Y-132884333D01*
X137816167Y-132799667D02*
X137646833Y-132884333D01*
X137308167Y-132884333D01*
X137138833Y-132799667D01*
X137054167Y-132630333D01*
X137054167Y-131953000D01*
X137138833Y-131783667D01*
X137308167Y-131699000D01*
X137646833Y-131699000D01*
X137816167Y-131783667D01*
X137900833Y-131953000D01*
X137900833Y-132122333D01*
X137054167Y-132291667D01*
X138662833Y-132884333D02*
X138662833Y-131699000D01*
X138662833Y-132037667D02*
X138747500Y-131868333D01*
X138832167Y-131783667D01*
X139001500Y-131699000D01*
X139170833Y-131699000D01*
X140525500Y-132884333D02*
X140525500Y-131953000D01*
X140440834Y-131783667D01*
X140271500Y-131699000D01*
X139932834Y-131699000D01*
X139763500Y-131783667D01*
X140525500Y-132799667D02*
X140356167Y-132884333D01*
X139932834Y-132884333D01*
X139763500Y-132799667D01*
X139678834Y-132630333D01*
X139678834Y-132461000D01*
X139763500Y-132291667D01*
X139932834Y-132207000D01*
X140356167Y-132207000D01*
X140525500Y-132122333D01*
X142557501Y-131106333D02*
X143658168Y-131106333D01*
X143065501Y-131783667D01*
X143319501Y-131783667D01*
X143488834Y-131868333D01*
X143573501Y-131953000D01*
X143658168Y-132122333D01*
X143658168Y-132545667D01*
X143573501Y-132715000D01*
X143488834Y-132799667D01*
X143319501Y-132884333D01*
X142811501Y-132884333D01*
X142642168Y-132799667D01*
X142557501Y-132715000D01*
X132778499Y-144716500D02*
X132693833Y-144801167D01*
X132439833Y-144885833D01*
X132270499Y-144885833D01*
X132016499Y-144801167D01*
X131847166Y-144631833D01*
X131762499Y-144462500D01*
X131677833Y-144123833D01*
X131677833Y-143869833D01*
X131762499Y-143531167D01*
X131847166Y-143361833D01*
X132016499Y-143192500D01*
X132270499Y-143107833D01*
X132439833Y-143107833D01*
X132693833Y-143192500D01*
X132778499Y-143277167D01*
X134302499Y-144885833D02*
X134302499Y-143954500D01*
X134217833Y-143785167D01*
X134048499Y-143700500D01*
X133709833Y-143700500D01*
X133540499Y-143785167D01*
X134302499Y-144801167D02*
X134133166Y-144885833D01*
X133709833Y-144885833D01*
X133540499Y-144801167D01*
X133455833Y-144631833D01*
X133455833Y-144462500D01*
X133540499Y-144293167D01*
X133709833Y-144208500D01*
X134133166Y-144208500D01*
X134302499Y-144123833D01*
X135149166Y-144885833D02*
X135149166Y-143700500D01*
X135149166Y-143869833D02*
X135233833Y-143785167D01*
X135403166Y-143700500D01*
X135657166Y-143700500D01*
X135826500Y-143785167D01*
X135911166Y-143954500D01*
X135911166Y-144885833D01*
X135911166Y-143954500D02*
X135995833Y-143785167D01*
X136165166Y-143700500D01*
X136419166Y-143700500D01*
X136588500Y-143785167D01*
X136673166Y-143954500D01*
X136673166Y-144885833D01*
X138197167Y-144801167D02*
X138027833Y-144885833D01*
X137689167Y-144885833D01*
X137519833Y-144801167D01*
X137435167Y-144631833D01*
X137435167Y-143954500D01*
X137519833Y-143785167D01*
X137689167Y-143700500D01*
X138027833Y-143700500D01*
X138197167Y-143785167D01*
X138281833Y-143954500D01*
X138281833Y-144123833D01*
X137435167Y-144293167D01*
X139043833Y-144885833D02*
X139043833Y-143700500D01*
X139043833Y-144039167D02*
X139128500Y-143869833D01*
X139213167Y-143785167D01*
X139382500Y-143700500D01*
X139551833Y-143700500D01*
X140906500Y-144885833D02*
X140906500Y-143954500D01*
X140821834Y-143785167D01*
X140652500Y-143700500D01*
X140313834Y-143700500D01*
X140144500Y-143785167D01*
X140906500Y-144801167D02*
X140737167Y-144885833D01*
X140313834Y-144885833D01*
X140144500Y-144801167D01*
X140059834Y-144631833D01*
X140059834Y-144462500D01*
X140144500Y-144293167D01*
X140313834Y-144208500D01*
X140737167Y-144208500D01*
X140906500Y-144123833D01*
X143023168Y-143277167D02*
X143107834Y-143192500D01*
X143277168Y-143107833D01*
X143700501Y-143107833D01*
X143869834Y-143192500D01*
X143954501Y-143277167D01*
X144039168Y-143446500D01*
X144039168Y-143615833D01*
X143954501Y-143869833D01*
X142938501Y-144885833D01*
X144039168Y-144885833D01*
X132397499Y-156718000D02*
X132312833Y-156802667D01*
X132058833Y-156887333D01*
X131889499Y-156887333D01*
X131635499Y-156802667D01*
X131466166Y-156633333D01*
X131381499Y-156464000D01*
X131296833Y-156125333D01*
X131296833Y-155871333D01*
X131381499Y-155532667D01*
X131466166Y-155363333D01*
X131635499Y-155194000D01*
X131889499Y-155109333D01*
X132058833Y-155109333D01*
X132312833Y-155194000D01*
X132397499Y-155278667D01*
X133921499Y-156887333D02*
X133921499Y-155956000D01*
X133836833Y-155786667D01*
X133667499Y-155702000D01*
X133328833Y-155702000D01*
X133159499Y-155786667D01*
X133921499Y-156802667D02*
X133752166Y-156887333D01*
X133328833Y-156887333D01*
X133159499Y-156802667D01*
X133074833Y-156633333D01*
X133074833Y-156464000D01*
X133159499Y-156294667D01*
X133328833Y-156210000D01*
X133752166Y-156210000D01*
X133921499Y-156125333D01*
X134768166Y-156887333D02*
X134768166Y-155702000D01*
X134768166Y-155871333D02*
X134852833Y-155786667D01*
X135022166Y-155702000D01*
X135276166Y-155702000D01*
X135445500Y-155786667D01*
X135530166Y-155956000D01*
X135530166Y-156887333D01*
X135530166Y-155956000D02*
X135614833Y-155786667D01*
X135784166Y-155702000D01*
X136038166Y-155702000D01*
X136207500Y-155786667D01*
X136292166Y-155956000D01*
X136292166Y-156887333D01*
X137816167Y-156802667D02*
X137646833Y-156887333D01*
X137308167Y-156887333D01*
X137138833Y-156802667D01*
X137054167Y-156633333D01*
X137054167Y-155956000D01*
X137138833Y-155786667D01*
X137308167Y-155702000D01*
X137646833Y-155702000D01*
X137816167Y-155786667D01*
X137900833Y-155956000D01*
X137900833Y-156125333D01*
X137054167Y-156294667D01*
X138662833Y-156887333D02*
X138662833Y-155702000D01*
X138662833Y-156040667D02*
X138747500Y-155871333D01*
X138832167Y-155786667D01*
X139001500Y-155702000D01*
X139170833Y-155702000D01*
X140525500Y-156887333D02*
X140525500Y-155956000D01*
X140440834Y-155786667D01*
X140271500Y-155702000D01*
X139932834Y-155702000D01*
X139763500Y-155786667D01*
X140525500Y-156802667D02*
X140356167Y-156887333D01*
X139932834Y-156887333D01*
X139763500Y-156802667D01*
X139678834Y-156633333D01*
X139678834Y-156464000D01*
X139763500Y-156294667D01*
X139932834Y-156210000D01*
X140356167Y-156210000D01*
X140525500Y-156125333D01*
X143658168Y-156887333D02*
X142642168Y-156887333D01*
X143150168Y-156887333D02*
X143150168Y-155109333D01*
X142980834Y-155363333D01*
X142811501Y-155532667D01*
X142642168Y-155617333D01*
X126949200Y-128968501D02*
X127033867Y-129053167D01*
X127118533Y-129307167D01*
X127118533Y-129476501D01*
X127033867Y-129730501D01*
X126864533Y-129899834D01*
X126695200Y-129984501D01*
X126356533Y-130069167D01*
X126102533Y-130069167D01*
X125763867Y-129984501D01*
X125594533Y-129899834D01*
X125425200Y-129730501D01*
X125340533Y-129476501D01*
X125340533Y-129307167D01*
X125425200Y-129053167D01*
X125509867Y-128968501D01*
X127118533Y-127444501D02*
X126187200Y-127444501D01*
X126017867Y-127529167D01*
X125933200Y-127698501D01*
X125933200Y-128037167D01*
X126017867Y-128206501D01*
X127033867Y-127444501D02*
X127118533Y-127613834D01*
X127118533Y-128037167D01*
X127033867Y-128206501D01*
X126864533Y-128291167D01*
X126695200Y-128291167D01*
X126525867Y-128206501D01*
X126441200Y-128037167D01*
X126441200Y-127613834D01*
X126356533Y-127444501D01*
X127118533Y-126597834D02*
X125933200Y-126597834D01*
X126102533Y-126597834D02*
X126017867Y-126513167D01*
X125933200Y-126343834D01*
X125933200Y-126089834D01*
X126017867Y-125920500D01*
X126187200Y-125835834D01*
X127118533Y-125835834D01*
X126187200Y-125835834D02*
X126017867Y-125751167D01*
X125933200Y-125581834D01*
X125933200Y-125327834D01*
X126017867Y-125158500D01*
X126187200Y-125073834D01*
X127118533Y-125073834D01*
X127033867Y-123549833D02*
X127118533Y-123719167D01*
X127118533Y-124057833D01*
X127033867Y-124227167D01*
X126864533Y-124311833D01*
X126187200Y-124311833D01*
X126017867Y-124227167D01*
X125933200Y-124057833D01*
X125933200Y-123719167D01*
X126017867Y-123549833D01*
X126187200Y-123465167D01*
X126356533Y-123465167D01*
X126525867Y-124311833D01*
X127118533Y-122703167D02*
X125933200Y-122703167D01*
X126271867Y-122703167D02*
X126102533Y-122618500D01*
X126017867Y-122533833D01*
X125933200Y-122364500D01*
X125933200Y-122195167D01*
X127118533Y-120840500D02*
X126187200Y-120840500D01*
X126017867Y-120925166D01*
X125933200Y-121094500D01*
X125933200Y-121433166D01*
X126017867Y-121602500D01*
X127033867Y-120840500D02*
X127118533Y-121009833D01*
X127118533Y-121433166D01*
X127033867Y-121602500D01*
X126864533Y-121687166D01*
X126695200Y-121687166D01*
X126525867Y-121602500D01*
X126441200Y-121433166D01*
X126441200Y-121009833D01*
X126356533Y-120840500D01*
X125340533Y-118300499D02*
X125340533Y-117961832D01*
X125425200Y-117792499D01*
X125594533Y-117623166D01*
X125933200Y-117538499D01*
X126525867Y-117538499D01*
X126864533Y-117623166D01*
X127033867Y-117792499D01*
X127118533Y-117961832D01*
X127118533Y-118300499D01*
X127033867Y-118469832D01*
X126864533Y-118639166D01*
X126525867Y-118723832D01*
X125933200Y-118723832D01*
X125594533Y-118639166D01*
X125425200Y-118469832D01*
X125340533Y-118300499D01*
X125933200Y-116014499D02*
X127118533Y-116014499D01*
X125933200Y-116776499D02*
X126864533Y-116776499D01*
X127033867Y-116691832D01*
X127118533Y-116522499D01*
X127118533Y-116268499D01*
X127033867Y-116099165D01*
X126949200Y-116014499D01*
X125933200Y-115421832D02*
X125933200Y-114744498D01*
X125340533Y-115167832D02*
X126864533Y-115167832D01*
X127033867Y-115083165D01*
X127118533Y-114913832D01*
X127118533Y-114744498D01*
D14*
X160909000Y-170028600D02*
X160909000Y-164643800D01*
X159842200Y-163577000D02*
G75*
G03X160909000Y-164643800I1066800J0D01*
G01*
X160909000Y-164643800D02*
G75*
G03X161975800Y-163577000I0J1066800D01*
G01*
X159791400Y-163577000D02*
X158572200Y-163577000D01*
X162026600Y-163577000D02*
X163195000Y-163577000D01*
X162026600Y-171197000D02*
G75*
G03X162026600Y-171197000I-1117600J0D01*
G01*
X163195000Y-163577000D02*
X170942000Y-163577000D01*
X158623000Y-163577000D02*
X146329400Y-163577000D01*
X162052000Y-186945000D02*
X163271200Y-186945000D01*
X160909000Y-185802000D02*
G75*
G03X159766000Y-186945000I0J-1143000D01*
G01*
X162052000Y-186945000D02*
G75*
G03X160909000Y-185802000I-1143000J0D01*
G01*
X158597600Y-171197000D02*
X159791400Y-171197000D01*
X160909000Y-173508400D02*
X160909000Y-172340000D01*
X163220400Y-171197000D02*
X162052000Y-171197000D01*
X158648400Y-186945000D02*
X159740600Y-186945000D01*
X160909000Y-185802000D02*
X160909000Y-184633600D01*
X160909000Y-176785000D02*
X160909000Y-177928000D01*
X170942000Y-179096400D02*
X162052000Y-179096400D01*
X160909000Y-181357000D02*
X160909000Y-180214000D01*
X158623000Y-179071000D02*
X159766000Y-179071000D01*
X160909000Y-176785000D02*
X160909000Y-173483000D01*
X158623000Y-179071000D02*
X146304000Y-179071000D01*
X160909000Y-181357000D02*
X160909000Y-184633600D01*
X162052000Y-179071000D02*
G75*
G03X162052000Y-179071000I-1143000J0D01*
G01*
X158623000Y-171197000D02*
X146304000Y-171197000D01*
X163195000Y-171197000D02*
X170942000Y-171197000D01*
X170942000Y-186945000D02*
X163195000Y-186945000D01*
X158623000Y-186945000D02*
X146304000Y-186945000D01*
X170946000Y-163575000D02*
X170946000Y-186947000D01*
X146308000Y-163575000D02*
X146308000Y-186947000D01*
X135163560Y-179674520D02*
X132623560Y-182214520D01*
X132623560Y-182214520D02*
X127543560Y-182214520D01*
X127543560Y-182214520D02*
X125003560Y-179674520D01*
X125003560Y-179674520D02*
X125003560Y-174594520D01*
X125003560Y-174594520D02*
X127543560Y-172054520D01*
X127543560Y-172054520D02*
X132623560Y-172054520D01*
X132623560Y-172054520D02*
X135163560Y-174594520D01*
X135163560Y-174594520D02*
X135163560Y-179674520D01*
X122463560Y-172054520D02*
X122463560Y-182214520D01*
X138973560Y-172054520D02*
X138973560Y-182214520D01*
X138973560Y-182214520D02*
X122463560Y-182214520D01*
X122463560Y-172054520D02*
X138973560Y-172054520D01*
D15*
X112031220Y-183080140D02*
X112031220Y-182380140D01*
X113231220Y-182380140D02*
X113231220Y-183080140D01*
X113152480Y-177416980D02*
X113152480Y-178116980D01*
X111952480Y-178116980D02*
X111952480Y-177416980D01*
X132724600Y-170225200D02*
X132724600Y-169525200D01*
X133924600Y-169525200D02*
X133924600Y-170225200D01*
X114368020Y-183080140D02*
X114368020Y-182380140D01*
X115568020Y-182380140D02*
X115568020Y-183080140D01*
X111984080Y-177416980D02*
X111984080Y-178116980D01*
X110784080Y-178116980D02*
X110784080Y-177416980D01*
X133893000Y-170225200D02*
X133893000Y-169525200D01*
X135093000Y-169525200D02*
X135093000Y-170225200D01*
X113199620Y-183080140D02*
X113199620Y-182380140D01*
X114399620Y-182380140D02*
X114399620Y-183080140D01*
X117800680Y-177416980D02*
X117800680Y-178116980D01*
X116600680Y-178116980D02*
X116600680Y-177416980D01*
X135061400Y-170225200D02*
X135061400Y-169525200D01*
X136261400Y-169525200D02*
X136261400Y-170225200D01*
X116704820Y-183105540D02*
X116704820Y-182405540D01*
X117904820Y-182405540D02*
X117904820Y-183105540D01*
X114320880Y-177416980D02*
X114320880Y-178116980D01*
X113120880Y-178116980D02*
X113120880Y-177416980D01*
X136229800Y-170225200D02*
X136229800Y-169525200D01*
X137429800Y-169525200D02*
X137429800Y-170225200D01*
X115536420Y-183080140D02*
X115536420Y-182380140D01*
X116736420Y-182380140D02*
X116736420Y-183080140D01*
X115463880Y-177416980D02*
X115463880Y-178116980D01*
X114263880Y-178116980D02*
X114263880Y-177416980D01*
X137423600Y-170225200D02*
X137423600Y-169525200D01*
X138623600Y-169525200D02*
X138623600Y-170225200D01*
X110862820Y-183080140D02*
X110862820Y-182380140D01*
X112062820Y-182380140D02*
X112062820Y-183080140D01*
X116632280Y-177416980D02*
X116632280Y-178116980D01*
X115432280Y-178116980D02*
X115432280Y-177416980D01*
X131530800Y-170250600D02*
X131530800Y-169550600D01*
X132730800Y-169550600D02*
X132730800Y-170250600D01*
X118245300Y-181314000D02*
X118245300Y-182414000D01*
X118245300Y-182414000D02*
X120845300Y-182414000D01*
X118245300Y-181314000D02*
X120845300Y-181314000D01*
D16*
X117564461Y-129869079D02*
X117475000Y-130048000D01*
X117385539Y-129869079D02*
X117475000Y-130048000D01*
X111633000Y-114300000D02*
X123317000Y-114300000D01*
X123317000Y-114300000D02*
X123317000Y-93345000D01*
X123317000Y-93345000D02*
X111633000Y-93345000D01*
X111633000Y-93345000D02*
X111633000Y-114300000D01*
X109994700Y-128905000D02*
X113847652Y-128905000D01*
X124955300Y-128905000D02*
X124955300Y-114046000D01*
X124955300Y-114046000D02*
X109994700Y-114046000D01*
X109994700Y-114046000D02*
X109994700Y-128905000D01*
X118562348Y-128905000D02*
X124955300Y-128905000D01*
X116022348Y-128905000D02*
X116387652Y-128905000D01*
D15*
X123855100Y-145929900D02*
X122855100Y-145929900D01*
X122855100Y-144569900D02*
X123855100Y-144569900D01*
X123855100Y-143389900D02*
X122855100Y-143389900D01*
X122855100Y-142029900D02*
X123855100Y-142029900D01*
X123855100Y-140849900D02*
X122855100Y-140849900D01*
X122855100Y-139489900D02*
X123855100Y-139489900D01*
X123855100Y-138309900D02*
X122855100Y-138309900D01*
X122855100Y-136949900D02*
X123855100Y-136949900D01*
X119545300Y-183063600D02*
X120545300Y-183063600D01*
X120545300Y-184423600D02*
X119545300Y-184423600D01*
X122491880Y-130470360D02*
X123491880Y-130470360D01*
X123491880Y-131830360D02*
X122491880Y-131830360D01*
X112859100Y-144622900D02*
X112859100Y-145622900D01*
X111499100Y-145622900D02*
X111499100Y-144622900D01*
X112859100Y-140431900D02*
X112859100Y-141431900D01*
X111499100Y-141431900D02*
X111499100Y-140431900D01*
X118143400Y-130536400D02*
X119143400Y-130536400D01*
X119143400Y-131896400D02*
X118143400Y-131896400D01*
D16*
X119392700Y-136944100D02*
X115125500Y-136944100D01*
X115125500Y-145935700D02*
X119392700Y-145935700D01*
X118343245Y-133311900D02*
X117038555Y-133311900D01*
X117038555Y-135674100D02*
X118343245Y-135674100D01*
D17*
G36*
X163080270Y-192324811D02*
X163069772Y-192348974D01*
X163035631Y-192400375D01*
X163016043Y-192428109D01*
X162979401Y-192482196D01*
X162943500Y-192541563D01*
X162906087Y-192610959D01*
X162864908Y-192695130D01*
X162817712Y-192798823D01*
X162762245Y-192926788D01*
X162696255Y-193083770D01*
X162637506Y-193225824D01*
X162587541Y-193348483D01*
X162525917Y-193501788D01*
X162455306Y-193678941D01*
X162378380Y-193873142D01*
X162297810Y-194077592D01*
X162216268Y-194285491D01*
X162136426Y-194490041D01*
X162060955Y-194684441D01*
X161992527Y-194861893D01*
X161933813Y-195015596D01*
X161922131Y-195046434D01*
X161900490Y-195103663D01*
X161788044Y-194949688D01*
X161738327Y-194885314D01*
X161696345Y-194837788D01*
X161667908Y-194813335D01*
X161659819Y-194812269D01*
X161648600Y-194832736D01*
X161621484Y-194886287D01*
X161579960Y-194969877D01*
X161525517Y-195080461D01*
X161459646Y-195214994D01*
X161383835Y-195370431D01*
X161299575Y-195543729D01*
X161208355Y-195731841D01*
X161111664Y-195931723D01*
X161073078Y-196011620D01*
X160850928Y-196471554D01*
X160644786Y-196897769D01*
X160453435Y-197292756D01*
X160275657Y-197659002D01*
X160110236Y-197998995D01*
X159955955Y-198315225D01*
X159811596Y-198610179D01*
X159675943Y-198886347D01*
X159547778Y-199146216D01*
X159425885Y-199392275D01*
X159309045Y-199627013D01*
X159196043Y-199852917D01*
X159131719Y-199980997D01*
X159044540Y-200155365D01*
X158970096Y-200305261D01*
X158905741Y-200434126D01*
X158848826Y-200545404D01*
X158796704Y-200642534D01*
X158746728Y-200728960D01*
X158696250Y-200808124D01*
X158642622Y-200883466D01*
X158583196Y-200958429D01*
X158515326Y-201036454D01*
X158436363Y-201120984D01*
X158343660Y-201215461D01*
X158234570Y-201323325D01*
X158106444Y-201448020D01*
X157956636Y-201592987D01*
X157782497Y-201761667D01*
X157701173Y-201840697D01*
X157554488Y-201984227D01*
X157410979Y-202126150D01*
X157274392Y-202262661D01*
X157148471Y-202389953D01*
X157036961Y-202504220D01*
X156943605Y-202601656D01*
X156872149Y-202678453D01*
X156830555Y-202725703D01*
X156717434Y-202858710D01*
X156580261Y-203015984D01*
X156423050Y-203193156D01*
X156249811Y-203385856D01*
X156064557Y-203589716D01*
X155871300Y-203800364D01*
X155674051Y-204013433D01*
X155476822Y-204224552D01*
X155283625Y-204429353D01*
X155098473Y-204623465D01*
X154925376Y-204802519D01*
X154897052Y-204831540D01*
X154801257Y-204929821D01*
X154715722Y-205018109D01*
X154644147Y-205092543D01*
X154590226Y-205149264D01*
X154557657Y-205184413D01*
X154549480Y-205194433D01*
X154574121Y-205203212D01*
X154629950Y-205219274D01*
X154709150Y-205240626D01*
X154803901Y-205265276D01*
X154906386Y-205291229D01*
X155008787Y-205316494D01*
X155103285Y-205339077D01*
X155182061Y-205356986D01*
X155212496Y-205363439D01*
X155341247Y-205387716D01*
X155434816Y-205400502D01*
X155496362Y-205402031D01*
X155529046Y-205392538D01*
X155533886Y-205387274D01*
X155553039Y-205368377D01*
X155596378Y-205330821D01*
X155656628Y-205280805D01*
X155700460Y-205245314D01*
X155856816Y-205119885D01*
X155540396Y-205418325D01*
X155608393Y-205430494D01*
X155728916Y-205447926D01*
X155873371Y-205462047D01*
X156036285Y-205472897D01*
X156212184Y-205480515D01*
X156395596Y-205484942D01*
X156581045Y-205486218D01*
X156763060Y-205484383D01*
X156936167Y-205479477D01*
X157094892Y-205471540D01*
X157233762Y-205460611D01*
X157347303Y-205446733D01*
X157430042Y-205429943D01*
X157465892Y-205416897D01*
X157488815Y-205393244D01*
X157529388Y-205338275D01*
X157585448Y-205255531D01*
X157654833Y-205148553D01*
X157735382Y-205020885D01*
X157824933Y-204876066D01*
X157921322Y-204717640D01*
X158022390Y-204549147D01*
X158125973Y-204374130D01*
X158229911Y-204196130D01*
X158332040Y-204018689D01*
X158430199Y-203845349D01*
X158483454Y-203749899D01*
X158567962Y-203600109D01*
X158658724Y-203443722D01*
X158750449Y-203289549D01*
X158837845Y-203146399D01*
X158915622Y-203023083D01*
X158965072Y-202948005D01*
X159039057Y-202835036D01*
X159124979Y-202697784D01*
X159216074Y-202547431D01*
X159305578Y-202395162D01*
X159386727Y-202252158D01*
X159394846Y-202237485D01*
X159494475Y-202061471D01*
X159592447Y-201898793D01*
X159695807Y-201738514D01*
X159811605Y-201569700D01*
X159943922Y-201385473D01*
X160227267Y-200989587D01*
X160495019Y-200598454D01*
X160753403Y-200202427D01*
X161008644Y-199791860D01*
X161266966Y-199357105D01*
X161387003Y-199149031D01*
X161459032Y-199025258D01*
X161524578Y-198918420D01*
X161589547Y-198820144D01*
X161659849Y-198722058D01*
X161741391Y-198615791D01*
X161840081Y-198492972D01*
X161910457Y-198407279D01*
X162007585Y-198289462D01*
X162104197Y-198171944D01*
X162194815Y-198061412D01*
X162273960Y-197964553D01*
X162336155Y-197888057D01*
X162362044Y-197855977D01*
X162424349Y-197779224D01*
X162503235Y-197683251D01*
X162589329Y-197579400D01*
X162673260Y-197479013D01*
X162687136Y-197462517D01*
X162755474Y-197379771D01*
X162813460Y-197306515D01*
X162856566Y-197248716D01*
X162880261Y-197212336D01*
X162883414Y-197204063D01*
X162878066Y-197173958D01*
X162864304Y-197119247D01*
X162845552Y-197051712D01*
X162825235Y-196983138D01*
X162806777Y-196925308D01*
X162793602Y-196890006D01*
X162790676Y-196884930D01*
X162773172Y-196893048D01*
X162735556Y-196922839D01*
X162688907Y-196965120D01*
X162642642Y-197006811D01*
X162620984Y-197020625D01*
X162625183Y-197005787D01*
X162626288Y-197003964D01*
X162654316Y-196955229D01*
X162688797Y-196891222D01*
X162702401Y-196864915D01*
X162729759Y-196813491D01*
X162746537Y-196793523D01*
X162759748Y-196800436D01*
X162771257Y-196819994D01*
X162782047Y-196836396D01*
X162795673Y-196842017D01*
X162817290Y-196833635D01*
X162852051Y-196808025D01*
X162905109Y-196761968D01*
X162981617Y-196692240D01*
X162994480Y-196680417D01*
X163221382Y-196473548D01*
X163423524Y-196293130D01*
X163603891Y-196136674D01*
X163765470Y-196001687D01*
X163911248Y-195885680D01*
X164044210Y-195786162D01*
X164167344Y-195700641D01*
X164176469Y-195694588D01*
X164339673Y-195593532D01*
X164479326Y-195521596D01*
X164594735Y-195479026D01*
X164685204Y-195466069D01*
X164750038Y-195482970D01*
X164757842Y-195488350D01*
X164779243Y-195507095D01*
X164775259Y-195516250D01*
X164740083Y-195519382D01*
X164706637Y-195519822D01*
X164617262Y-195533078D01*
X164528584Y-195575497D01*
X164524636Y-195577981D01*
X164454419Y-195627593D01*
X164363476Y-195699331D01*
X164259196Y-195786736D01*
X164148967Y-195883348D01*
X164040178Y-195982707D01*
X163940219Y-196078355D01*
X163865735Y-196153999D01*
X163803875Y-196219938D01*
X163725512Y-196304476D01*
X163634758Y-196403082D01*
X163535728Y-196511224D01*
X163432535Y-196624369D01*
X163329292Y-196737985D01*
X163230112Y-196847542D01*
X163139110Y-196948507D01*
X163060398Y-197036347D01*
X162998091Y-197106532D01*
X162956301Y-197154530D01*
X162942592Y-197171039D01*
X162898407Y-197227212D01*
X162952629Y-197471429D01*
X162997170Y-197683550D01*
X163031803Y-197877681D01*
X163057839Y-198065155D01*
X163076588Y-198257305D01*
X163089360Y-198465466D01*
X163097467Y-198700971D01*
X163098152Y-198729984D01*
X163100664Y-199055895D01*
X163091928Y-199353401D01*
X163070904Y-199632867D01*
X163036553Y-199904661D01*
X162987836Y-200179150D01*
X162924375Y-200463974D01*
X162785604Y-200952644D01*
X162610170Y-201426823D01*
X162399484Y-201884586D01*
X162154959Y-202324005D01*
X161878007Y-202743154D01*
X161570039Y-203140108D01*
X161232467Y-203512941D01*
X160866703Y-203859726D01*
X160474159Y-204178537D01*
X160056247Y-204467448D01*
X159934345Y-204543046D01*
X159518305Y-204774005D01*
X159083099Y-204976039D01*
X158635396Y-205146636D01*
X158181864Y-205283282D01*
X157729172Y-205383467D01*
X157681126Y-205391912D01*
X157575741Y-205413362D01*
X157507744Y-205435486D01*
X157474947Y-205458416D01*
X157456761Y-205484349D01*
X157419297Y-205538366D01*
X157365981Y-205615504D01*
X157300242Y-205710800D01*
X157225505Y-205819293D01*
X157166537Y-205904990D01*
X156946534Y-206217328D01*
X156739573Y-206495115D01*
X156543398Y-206740862D01*
X156355750Y-206957079D01*
X156174373Y-207146275D01*
X155997010Y-207310962D01*
X155821402Y-207453649D01*
X155688872Y-207548152D01*
X155572067Y-207619470D01*
X155437600Y-207690152D01*
X155298227Y-207754296D01*
X155166702Y-207805996D01*
X155063922Y-207837416D01*
X154899519Y-207866605D01*
X154721619Y-207879585D01*
X154547698Y-207875757D01*
X154419557Y-207859514D01*
X154181988Y-207794122D01*
X153954300Y-207689947D01*
X153736801Y-207547139D01*
X153661512Y-207486686D01*
X153603399Y-207441432D01*
X153556095Y-207417942D01*
X153502313Y-207409373D01*
X153464089Y-207408542D01*
X153195430Y-207392796D01*
X152922828Y-207347325D01*
X152857996Y-207329729D01*
X154339548Y-207329729D01*
X154367302Y-207347137D01*
X154393359Y-207355275D01*
X154431383Y-207359649D01*
X154497150Y-207361793D01*
X154578357Y-207361388D01*
X154603856Y-207360723D01*
X154720799Y-207352279D01*
X154817294Y-207332855D01*
X154900132Y-207303881D01*
X155035644Y-207242008D01*
X155156917Y-207171152D01*
X155274764Y-207083888D01*
X155399996Y-206972788D01*
X155444393Y-206930013D01*
X155509912Y-206864744D01*
X155558610Y-206813955D01*
X155586880Y-206781608D01*
X155591114Y-206771667D01*
X155586177Y-206774261D01*
X155378969Y-206902954D01*
X155199931Y-207005580D01*
X155047535Y-207083013D01*
X155040241Y-207086399D01*
X154932657Y-207132511D01*
X154809442Y-207179635D01*
X154681741Y-207224021D01*
X154560701Y-207261923D01*
X154457466Y-207289591D01*
X154403133Y-207300647D01*
X154351565Y-207313821D01*
X154339548Y-207329729D01*
X152857996Y-207329729D01*
X152655516Y-207274775D01*
X152402731Y-207177794D01*
X152173710Y-207059030D01*
X152114024Y-207021527D01*
X152044991Y-206981361D01*
X151977135Y-206950141D01*
X151937558Y-206937648D01*
X151885359Y-206922140D01*
X151811993Y-206894128D01*
X151732051Y-206859247D01*
X151720391Y-206853769D01*
X151560021Y-206755773D01*
X151559761Y-206755529D01*
X153512027Y-206755529D01*
X153518677Y-206771423D01*
X153537416Y-206792913D01*
X153541838Y-206797621D01*
X153566918Y-206822352D01*
X153591843Y-206837643D01*
X153624365Y-206843725D01*
X153672236Y-206840835D01*
X153743210Y-206829204D01*
X153845038Y-206809069D01*
X153854886Y-206807070D01*
X153936809Y-206788803D01*
X154030665Y-206765304D01*
X154129196Y-206738720D01*
X154225147Y-206711195D01*
X154311262Y-206684877D01*
X154380286Y-206661911D01*
X154424963Y-206644443D01*
X154438037Y-206634619D01*
X154438021Y-206634604D01*
X154416338Y-206634521D01*
X154364802Y-206640607D01*
X154292968Y-206651648D01*
X154262371Y-206656886D01*
X154174912Y-206670192D01*
X154062164Y-206684382D01*
X153938848Y-206697733D01*
X153822703Y-206708285D01*
X153699227Y-206718362D01*
X153611066Y-206726648D01*
X153553576Y-206734619D01*
X153522112Y-206743754D01*
X153512027Y-206755529D01*
X151559761Y-206755529D01*
X151420968Y-206625286D01*
X151304573Y-206464581D01*
X151212180Y-206275931D01*
X151145129Y-206061610D01*
X151104763Y-205823891D01*
X151103132Y-205808057D01*
X151089026Y-205721851D01*
X151064252Y-205619630D01*
X151033926Y-205522236D01*
X151030970Y-205514067D01*
X150952500Y-205272547D01*
X150942404Y-205233404D01*
X151333062Y-205233404D01*
X151341807Y-205376796D01*
X151350668Y-205464117D01*
X151368712Y-205535708D01*
X151401708Y-205610613D01*
X151426838Y-205657459D01*
X151597426Y-205933385D01*
X151782640Y-206173078D01*
X151983754Y-206378115D01*
X152067866Y-206449911D01*
X152188150Y-206547355D01*
X152318458Y-206534929D01*
X152386335Y-206527428D01*
X152436416Y-206519965D01*
X152457119Y-206514457D01*
X152461414Y-206509060D01*
X152457587Y-206501942D01*
X152439337Y-206488642D01*
X152400361Y-206464696D01*
X152334357Y-206425643D01*
X152318458Y-206416275D01*
X152099354Y-206268640D01*
X151902615Y-206096005D01*
X151725040Y-205894798D01*
X151563425Y-205661448D01*
X151432708Y-205428328D01*
X151333062Y-205233404D01*
X150942404Y-205233404D01*
X150881184Y-204996068D01*
X150817986Y-204689288D01*
X150763870Y-204356862D01*
X150721642Y-204020539D01*
X150712431Y-203915573D01*
X150704703Y-203787861D01*
X150698500Y-203643484D01*
X150693864Y-203488526D01*
X150690839Y-203329066D01*
X150689467Y-203171188D01*
X150689790Y-203020973D01*
X150691852Y-202884503D01*
X150695694Y-202767861D01*
X150701359Y-202677127D01*
X150708890Y-202618385D01*
X150711745Y-202607200D01*
X150722795Y-202576873D01*
X150728934Y-202575337D01*
X150731889Y-202606642D01*
X150733108Y-202657319D01*
X150739616Y-202816594D01*
X150753644Y-203005738D01*
X150774006Y-203215477D01*
X150799517Y-203436543D01*
X150828990Y-203659662D01*
X150861241Y-203875566D01*
X150895084Y-204074981D01*
X150929334Y-204248639D01*
X150945916Y-204321564D01*
X150976547Y-204443659D01*
X151009012Y-204564077D01*
X151041457Y-204676857D01*
X151072030Y-204776041D01*
X151098874Y-204855668D01*
X151120136Y-204909781D01*
X151133961Y-204932418D01*
X151136000Y-204932485D01*
X151154415Y-204900033D01*
X151163620Y-204836283D01*
X151163629Y-204748958D01*
X151154458Y-204645780D01*
X151136121Y-204534470D01*
X151135230Y-204530117D01*
X151106190Y-204380699D01*
X151082593Y-204237685D01*
X151063880Y-204094269D01*
X151049493Y-203943645D01*
X151038873Y-203779006D01*
X151031462Y-203593546D01*
X151026702Y-203380458D01*
X151024371Y-203178550D01*
X151021247Y-202788131D01*
X151136645Y-202788131D01*
X151138570Y-202866029D01*
X151142547Y-202963022D01*
X151148227Y-203072151D01*
X151155260Y-203186457D01*
X151163298Y-203298978D01*
X151171993Y-203402757D01*
X151177514Y-203459213D01*
X151188650Y-203553311D01*
X151203447Y-203661212D01*
X151220588Y-203775044D01*
X151238756Y-203886937D01*
X151256636Y-203989018D01*
X151272911Y-204073418D01*
X151286265Y-204132264D01*
X151293983Y-204155695D01*
X151304807Y-204147553D01*
X151324662Y-204107399D01*
X151350834Y-204041557D01*
X151380610Y-203956351D01*
X151384273Y-203945198D01*
X151429374Y-203810700D01*
X151469707Y-203697757D01*
X151503745Y-203610209D01*
X151529963Y-203551897D01*
X151546835Y-203526661D01*
X151550561Y-203526622D01*
X151549887Y-203548329D01*
X151541902Y-203601427D01*
X151527928Y-203678154D01*
X151509290Y-203770747D01*
X151507411Y-203779678D01*
X151481814Y-203906071D01*
X151454552Y-204049090D01*
X151429588Y-204187576D01*
X151416746Y-204263468D01*
X151377718Y-204502690D01*
X151438637Y-204677597D01*
X151489612Y-204811721D01*
X151552646Y-204958799D01*
X151622429Y-205107783D01*
X151693654Y-205247626D01*
X151761011Y-205367284D01*
X151798615Y-205426655D01*
X151894213Y-205553266D01*
X152010224Y-205683695D01*
X152134493Y-205805321D01*
X152254864Y-205905523D01*
X152271542Y-205917717D01*
X152332217Y-205957615D01*
X152406934Y-206001573D01*
X152487688Y-206045542D01*
X152566472Y-206085474D01*
X152635280Y-206117320D01*
X152686105Y-206137032D01*
X152710942Y-206140559D01*
X152711429Y-206140170D01*
X152707738Y-206119328D01*
X152690403Y-206071744D01*
X152662950Y-206006908D01*
X152656851Y-205993355D01*
X152597664Y-205857149D01*
X152531083Y-205694110D01*
X152461468Y-205515739D01*
X152393177Y-205333537D01*
X152330568Y-205159005D01*
X152278000Y-205003645D01*
X152258679Y-204942717D01*
X152225270Y-204831045D01*
X152189224Y-204704832D01*
X152152163Y-204570378D01*
X152115708Y-204433986D01*
X152081483Y-204301956D01*
X152051109Y-204180589D01*
X152026209Y-204076186D01*
X152008404Y-203995049D01*
X151999317Y-203943479D01*
X151998492Y-203932052D01*
X152005801Y-203939733D01*
X152026190Y-203980710D01*
X152057936Y-204051018D01*
X152099314Y-204146692D01*
X152148602Y-204263766D01*
X152204075Y-204398274D01*
X152246066Y-204501675D01*
X152334104Y-204718039D01*
X152411509Y-204903799D01*
X152481550Y-205065959D01*
X152547499Y-205211521D01*
X152612624Y-205347490D01*
X152680195Y-205480868D01*
X152753483Y-205618660D01*
X152835756Y-205767868D01*
X152844645Y-205783761D01*
X152924604Y-205925527D01*
X152988383Y-206035685D01*
X153038631Y-206118020D01*
X153078000Y-206176322D01*
X153109142Y-206214377D01*
X153134706Y-206235974D01*
X153157344Y-206244900D01*
X153168027Y-206245795D01*
X153204361Y-206235117D01*
X153264229Y-206206295D01*
X153338301Y-206164151D01*
X153393977Y-206129062D01*
X153475695Y-206072836D01*
X153576898Y-205999341D01*
X153686282Y-205916988D01*
X153792541Y-205834188D01*
X153822177Y-205810472D01*
X153841394Y-205794730D01*
X155004804Y-205794730D01*
X155014827Y-205804753D01*
X155024851Y-205794730D01*
X155014827Y-205784706D01*
X155004804Y-205794730D01*
X153841394Y-205794730D01*
X153862085Y-205777781D01*
X155044898Y-205777781D01*
X155060223Y-205773984D01*
X155106030Y-205744612D01*
X155182071Y-205689841D01*
X155288094Y-205609849D01*
X155341862Y-205568497D01*
X155409375Y-205514869D01*
X155461901Y-205470310D01*
X155493272Y-205440239D01*
X155499134Y-205430365D01*
X155481477Y-205438860D01*
X155439490Y-205467193D01*
X155380089Y-205510078D01*
X155310188Y-205562224D01*
X155236702Y-205618344D01*
X155166545Y-205673149D01*
X155106632Y-205721350D01*
X155063879Y-205757659D01*
X155045199Y-205776787D01*
X155044898Y-205777781D01*
X153862085Y-205777781D01*
X153908464Y-205739790D01*
X154003202Y-205660280D01*
X154101800Y-205576008D01*
X154199667Y-205491038D01*
X154292214Y-205409435D01*
X154374850Y-205335265D01*
X154442985Y-205272591D01*
X154492028Y-205225480D01*
X154517389Y-205197996D01*
X154519682Y-205192799D01*
X154499628Y-205184011D01*
X154449371Y-205164371D01*
X154376383Y-205136742D01*
X154288136Y-205103988D01*
X154283626Y-205102330D01*
X153816700Y-204910180D01*
X153365964Y-204683678D01*
X152934127Y-204424823D01*
X152523895Y-204135616D01*
X152137976Y-203818059D01*
X151779078Y-203474152D01*
X151449907Y-203105895D01*
X151266859Y-202872828D01*
X151216236Y-202806388D01*
X151174485Y-202754130D01*
X151147298Y-202723043D01*
X151140343Y-202717461D01*
X151137119Y-202736288D01*
X151136645Y-202788131D01*
X151021247Y-202788131D01*
X151019156Y-202527011D01*
X150885117Y-202306490D01*
X150640457Y-201865715D01*
X150431570Y-201407201D01*
X150258382Y-200930725D01*
X150120817Y-200436065D01*
X150018801Y-199922996D01*
X149970436Y-199570026D01*
X149961090Y-199458382D01*
X149954159Y-199315877D01*
X149949645Y-199151673D01*
X149947547Y-198974932D01*
X149947864Y-198794815D01*
X149950598Y-198620483D01*
X149955748Y-198461098D01*
X149963314Y-198325821D01*
X149970436Y-198246900D01*
X150049102Y-197720419D01*
X150163843Y-197211422D01*
X150314697Y-196719817D01*
X150501700Y-196245514D01*
X150724890Y-195788421D01*
X150984305Y-195348448D01*
X151279982Y-194925503D01*
X151394259Y-194778708D01*
X151496318Y-194657120D01*
X151620637Y-194518438D01*
X151758784Y-194371369D01*
X151902329Y-194224621D01*
X152042841Y-194086901D01*
X152171888Y-193966916D01*
X152228245Y-193917355D01*
X152631438Y-193597304D01*
X153055369Y-193311264D01*
X153498516Y-193059899D01*
X153959360Y-192843872D01*
X154436378Y-192663844D01*
X154928050Y-192520478D01*
X155432856Y-192414438D01*
X155796674Y-192362372D01*
X155945865Y-192348873D01*
X156123700Y-192338902D01*
X156319772Y-192332540D01*
X156523675Y-192329868D01*
X156725003Y-192330965D01*
X156913349Y-192335912D01*
X157078307Y-192344790D01*
X157159894Y-192351846D01*
X157679062Y-192424541D01*
X158182092Y-192533891D01*
X158669412Y-192680072D01*
X159141449Y-192863261D01*
X159598629Y-193083634D01*
X160041381Y-193341368D01*
X160470132Y-193636639D01*
X160698253Y-193813585D01*
X160785759Y-193887693D01*
X160890133Y-193981609D01*
X161005293Y-194089332D01*
X161125154Y-194204860D01*
X161243633Y-194322192D01*
X161354648Y-194435326D01*
X161452114Y-194538261D01*
X161529948Y-194624996D01*
X161570313Y-194673909D01*
X161612726Y-194726745D01*
X161645340Y-194764157D01*
X161660526Y-194777681D01*
X161671614Y-194760592D01*
X161698441Y-194711833D01*
X161738822Y-194635596D01*
X161790569Y-194536075D01*
X161851497Y-194417465D01*
X161919419Y-194283958D01*
X161965818Y-194192100D01*
X162109683Y-193909442D01*
X162248042Y-193643393D01*
X162379696Y-193396027D01*
X162503446Y-193169419D01*
X162618094Y-192965643D01*
X162722441Y-192786774D01*
X162815287Y-192634887D01*
X162895435Y-192512055D01*
X162961686Y-192420354D01*
X163012840Y-192361859D01*
X163032972Y-192345320D01*
X163067784Y-192324666D01*
X163080270Y-192324811D01*
X163080270Y-192324811D01*
G37*
X163080270Y-192324811D02*
X163069772Y-192348974D01*
X163035631Y-192400375D01*
X163016043Y-192428109D01*
X162979401Y-192482196D01*
X162943500Y-192541563D01*
X162906087Y-192610959D01*
X162864908Y-192695130D01*
X162817712Y-192798823D01*
X162762245Y-192926788D01*
X162696255Y-193083770D01*
X162637506Y-193225824D01*
X162587541Y-193348483D01*
X162525917Y-193501788D01*
X162455306Y-193678941D01*
X162378380Y-193873142D01*
X162297810Y-194077592D01*
X162216268Y-194285491D01*
X162136426Y-194490041D01*
X162060955Y-194684441D01*
X161992527Y-194861893D01*
X161933813Y-195015596D01*
X161922131Y-195046434D01*
X161900490Y-195103663D01*
X161788044Y-194949688D01*
X161738327Y-194885314D01*
X161696345Y-194837788D01*
X161667908Y-194813335D01*
X161659819Y-194812269D01*
X161648600Y-194832736D01*
X161621484Y-194886287D01*
X161579960Y-194969877D01*
X161525517Y-195080461D01*
X161459646Y-195214994D01*
X161383835Y-195370431D01*
X161299575Y-195543729D01*
X161208355Y-195731841D01*
X161111664Y-195931723D01*
X161073078Y-196011620D01*
X160850928Y-196471554D01*
X160644786Y-196897769D01*
X160453435Y-197292756D01*
X160275657Y-197659002D01*
X160110236Y-197998995D01*
X159955955Y-198315225D01*
X159811596Y-198610179D01*
X159675943Y-198886347D01*
X159547778Y-199146216D01*
X159425885Y-199392275D01*
X159309045Y-199627013D01*
X159196043Y-199852917D01*
X159131719Y-199980997D01*
X159044540Y-200155365D01*
X158970096Y-200305261D01*
X158905741Y-200434126D01*
X158848826Y-200545404D01*
X158796704Y-200642534D01*
X158746728Y-200728960D01*
X158696250Y-200808124D01*
X158642622Y-200883466D01*
X158583196Y-200958429D01*
X158515326Y-201036454D01*
X158436363Y-201120984D01*
X158343660Y-201215461D01*
X158234570Y-201323325D01*
X158106444Y-201448020D01*
X157956636Y-201592987D01*
X157782497Y-201761667D01*
X157701173Y-201840697D01*
X157554488Y-201984227D01*
X157410979Y-202126150D01*
X157274392Y-202262661D01*
X157148471Y-202389953D01*
X157036961Y-202504220D01*
X156943605Y-202601656D01*
X156872149Y-202678453D01*
X156830555Y-202725703D01*
X156717434Y-202858710D01*
X156580261Y-203015984D01*
X156423050Y-203193156D01*
X156249811Y-203385856D01*
X156064557Y-203589716D01*
X155871300Y-203800364D01*
X155674051Y-204013433D01*
X155476822Y-204224552D01*
X155283625Y-204429353D01*
X155098473Y-204623465D01*
X154925376Y-204802519D01*
X154897052Y-204831540D01*
X154801257Y-204929821D01*
X154715722Y-205018109D01*
X154644147Y-205092543D01*
X154590226Y-205149264D01*
X154557657Y-205184413D01*
X154549480Y-205194433D01*
X154574121Y-205203212D01*
X154629950Y-205219274D01*
X154709150Y-205240626D01*
X154803901Y-205265276D01*
X154906386Y-205291229D01*
X155008787Y-205316494D01*
X155103285Y-205339077D01*
X155182061Y-205356986D01*
X155212496Y-205363439D01*
X155341247Y-205387716D01*
X155434816Y-205400502D01*
X155496362Y-205402031D01*
X155529046Y-205392538D01*
X155533886Y-205387274D01*
X155553039Y-205368377D01*
X155596378Y-205330821D01*
X155656628Y-205280805D01*
X155700460Y-205245314D01*
X155856816Y-205119885D01*
X155540396Y-205418325D01*
X155608393Y-205430494D01*
X155728916Y-205447926D01*
X155873371Y-205462047D01*
X156036285Y-205472897D01*
X156212184Y-205480515D01*
X156395596Y-205484942D01*
X156581045Y-205486218D01*
X156763060Y-205484383D01*
X156936167Y-205479477D01*
X157094892Y-205471540D01*
X157233762Y-205460611D01*
X157347303Y-205446733D01*
X157430042Y-205429943D01*
X157465892Y-205416897D01*
X157488815Y-205393244D01*
X157529388Y-205338275D01*
X157585448Y-205255531D01*
X157654833Y-205148553D01*
X157735382Y-205020885D01*
X157824933Y-204876066D01*
X157921322Y-204717640D01*
X158022390Y-204549147D01*
X158125973Y-204374130D01*
X158229911Y-204196130D01*
X158332040Y-204018689D01*
X158430199Y-203845349D01*
X158483454Y-203749899D01*
X158567962Y-203600109D01*
X158658724Y-203443722D01*
X158750449Y-203289549D01*
X158837845Y-203146399D01*
X158915622Y-203023083D01*
X158965072Y-202948005D01*
X159039057Y-202835036D01*
X159124979Y-202697784D01*
X159216074Y-202547431D01*
X159305578Y-202395162D01*
X159386727Y-202252158D01*
X159394846Y-202237485D01*
X159494475Y-202061471D01*
X159592447Y-201898793D01*
X159695807Y-201738514D01*
X159811605Y-201569700D01*
X159943922Y-201385473D01*
X160227267Y-200989587D01*
X160495019Y-200598454D01*
X160753403Y-200202427D01*
X161008644Y-199791860D01*
X161266966Y-199357105D01*
X161387003Y-199149031D01*
X161459032Y-199025258D01*
X161524578Y-198918420D01*
X161589547Y-198820144D01*
X161659849Y-198722058D01*
X161741391Y-198615791D01*
X161840081Y-198492972D01*
X161910457Y-198407279D01*
X162007585Y-198289462D01*
X162104197Y-198171944D01*
X162194815Y-198061412D01*
X162273960Y-197964553D01*
X162336155Y-197888057D01*
X162362044Y-197855977D01*
X162424349Y-197779224D01*
X162503235Y-197683251D01*
X162589329Y-197579400D01*
X162673260Y-197479013D01*
X162687136Y-197462517D01*
X162755474Y-197379771D01*
X162813460Y-197306515D01*
X162856566Y-197248716D01*
X162880261Y-197212336D01*
X162883414Y-197204063D01*
X162878066Y-197173958D01*
X162864304Y-197119247D01*
X162845552Y-197051712D01*
X162825235Y-196983138D01*
X162806777Y-196925308D01*
X162793602Y-196890006D01*
X162790676Y-196884930D01*
X162773172Y-196893048D01*
X162735556Y-196922839D01*
X162688907Y-196965120D01*
X162642642Y-197006811D01*
X162620984Y-197020625D01*
X162625183Y-197005787D01*
X162626288Y-197003964D01*
X162654316Y-196955229D01*
X162688797Y-196891222D01*
X162702401Y-196864915D01*
X162729759Y-196813491D01*
X162746537Y-196793523D01*
X162759748Y-196800436D01*
X162771257Y-196819994D01*
X162782047Y-196836396D01*
X162795673Y-196842017D01*
X162817290Y-196833635D01*
X162852051Y-196808025D01*
X162905109Y-196761968D01*
X162981617Y-196692240D01*
X162994480Y-196680417D01*
X163221382Y-196473548D01*
X163423524Y-196293130D01*
X163603891Y-196136674D01*
X163765470Y-196001687D01*
X163911248Y-195885680D01*
X164044210Y-195786162D01*
X164167344Y-195700641D01*
X164176469Y-195694588D01*
X164339673Y-195593532D01*
X164479326Y-195521596D01*
X164594735Y-195479026D01*
X164685204Y-195466069D01*
X164750038Y-195482970D01*
X164757842Y-195488350D01*
X164779243Y-195507095D01*
X164775259Y-195516250D01*
X164740083Y-195519382D01*
X164706637Y-195519822D01*
X164617262Y-195533078D01*
X164528584Y-195575497D01*
X164524636Y-195577981D01*
X164454419Y-195627593D01*
X164363476Y-195699331D01*
X164259196Y-195786736D01*
X164148967Y-195883348D01*
X164040178Y-195982707D01*
X163940219Y-196078355D01*
X163865735Y-196153999D01*
X163803875Y-196219938D01*
X163725512Y-196304476D01*
X163634758Y-196403082D01*
X163535728Y-196511224D01*
X163432535Y-196624369D01*
X163329292Y-196737985D01*
X163230112Y-196847542D01*
X163139110Y-196948507D01*
X163060398Y-197036347D01*
X162998091Y-197106532D01*
X162956301Y-197154530D01*
X162942592Y-197171039D01*
X162898407Y-197227212D01*
X162952629Y-197471429D01*
X162997170Y-197683550D01*
X163031803Y-197877681D01*
X163057839Y-198065155D01*
X163076588Y-198257305D01*
X163089360Y-198465466D01*
X163097467Y-198700971D01*
X163098152Y-198729984D01*
X163100664Y-199055895D01*
X163091928Y-199353401D01*
X163070904Y-199632867D01*
X163036553Y-199904661D01*
X162987836Y-200179150D01*
X162924375Y-200463974D01*
X162785604Y-200952644D01*
X162610170Y-201426823D01*
X162399484Y-201884586D01*
X162154959Y-202324005D01*
X161878007Y-202743154D01*
X161570039Y-203140108D01*
X161232467Y-203512941D01*
X160866703Y-203859726D01*
X160474159Y-204178537D01*
X160056247Y-204467448D01*
X159934345Y-204543046D01*
X159518305Y-204774005D01*
X159083099Y-204976039D01*
X158635396Y-205146636D01*
X158181864Y-205283282D01*
X157729172Y-205383467D01*
X157681126Y-205391912D01*
X157575741Y-205413362D01*
X157507744Y-205435486D01*
X157474947Y-205458416D01*
X157456761Y-205484349D01*
X157419297Y-205538366D01*
X157365981Y-205615504D01*
X157300242Y-205710800D01*
X157225505Y-205819293D01*
X157166537Y-205904990D01*
X156946534Y-206217328D01*
X156739573Y-206495115D01*
X156543398Y-206740862D01*
X156355750Y-206957079D01*
X156174373Y-207146275D01*
X155997010Y-207310962D01*
X155821402Y-207453649D01*
X155688872Y-207548152D01*
X155572067Y-207619470D01*
X155437600Y-207690152D01*
X155298227Y-207754296D01*
X155166702Y-207805996D01*
X155063922Y-207837416D01*
X154899519Y-207866605D01*
X154721619Y-207879585D01*
X154547698Y-207875757D01*
X154419557Y-207859514D01*
X154181988Y-207794122D01*
X153954300Y-207689947D01*
X153736801Y-207547139D01*
X153661512Y-207486686D01*
X153603399Y-207441432D01*
X153556095Y-207417942D01*
X153502313Y-207409373D01*
X153464089Y-207408542D01*
X153195430Y-207392796D01*
X152922828Y-207347325D01*
X152857996Y-207329729D01*
X154339548Y-207329729D01*
X154367302Y-207347137D01*
X154393359Y-207355275D01*
X154431383Y-207359649D01*
X154497150Y-207361793D01*
X154578357Y-207361388D01*
X154603856Y-207360723D01*
X154720799Y-207352279D01*
X154817294Y-207332855D01*
X154900132Y-207303881D01*
X155035644Y-207242008D01*
X155156917Y-207171152D01*
X155274764Y-207083888D01*
X155399996Y-206972788D01*
X155444393Y-206930013D01*
X155509912Y-206864744D01*
X155558610Y-206813955D01*
X155586880Y-206781608D01*
X155591114Y-206771667D01*
X155586177Y-206774261D01*
X155378969Y-206902954D01*
X155199931Y-207005580D01*
X155047535Y-207083013D01*
X155040241Y-207086399D01*
X154932657Y-207132511D01*
X154809442Y-207179635D01*
X154681741Y-207224021D01*
X154560701Y-207261923D01*
X154457466Y-207289591D01*
X154403133Y-207300647D01*
X154351565Y-207313821D01*
X154339548Y-207329729D01*
X152857996Y-207329729D01*
X152655516Y-207274775D01*
X152402731Y-207177794D01*
X152173710Y-207059030D01*
X152114024Y-207021527D01*
X152044991Y-206981361D01*
X151977135Y-206950141D01*
X151937558Y-206937648D01*
X151885359Y-206922140D01*
X151811993Y-206894128D01*
X151732051Y-206859247D01*
X151720391Y-206853769D01*
X151560021Y-206755773D01*
X151559761Y-206755529D01*
X153512027Y-206755529D01*
X153518677Y-206771423D01*
X153537416Y-206792913D01*
X153541838Y-206797621D01*
X153566918Y-206822352D01*
X153591843Y-206837643D01*
X153624365Y-206843725D01*
X153672236Y-206840835D01*
X153743210Y-206829204D01*
X153845038Y-206809069D01*
X153854886Y-206807070D01*
X153936809Y-206788803D01*
X154030665Y-206765304D01*
X154129196Y-206738720D01*
X154225147Y-206711195D01*
X154311262Y-206684877D01*
X154380286Y-206661911D01*
X154424963Y-206644443D01*
X154438037Y-206634619D01*
X154438021Y-206634604D01*
X154416338Y-206634521D01*
X154364802Y-206640607D01*
X154292968Y-206651648D01*
X154262371Y-206656886D01*
X154174912Y-206670192D01*
X154062164Y-206684382D01*
X153938848Y-206697733D01*
X153822703Y-206708285D01*
X153699227Y-206718362D01*
X153611066Y-206726648D01*
X153553576Y-206734619D01*
X153522112Y-206743754D01*
X153512027Y-206755529D01*
X151559761Y-206755529D01*
X151420968Y-206625286D01*
X151304573Y-206464581D01*
X151212180Y-206275931D01*
X151145129Y-206061610D01*
X151104763Y-205823891D01*
X151103132Y-205808057D01*
X151089026Y-205721851D01*
X151064252Y-205619630D01*
X151033926Y-205522236D01*
X151030970Y-205514067D01*
X150952500Y-205272547D01*
X150942404Y-205233404D01*
X151333062Y-205233404D01*
X151341807Y-205376796D01*
X151350668Y-205464117D01*
X151368712Y-205535708D01*
X151401708Y-205610613D01*
X151426838Y-205657459D01*
X151597426Y-205933385D01*
X151782640Y-206173078D01*
X151983754Y-206378115D01*
X152067866Y-206449911D01*
X152188150Y-206547355D01*
X152318458Y-206534929D01*
X152386335Y-206527428D01*
X152436416Y-206519965D01*
X152457119Y-206514457D01*
X152461414Y-206509060D01*
X152457587Y-206501942D01*
X152439337Y-206488642D01*
X152400361Y-206464696D01*
X152334357Y-206425643D01*
X152318458Y-206416275D01*
X152099354Y-206268640D01*
X151902615Y-206096005D01*
X151725040Y-205894798D01*
X151563425Y-205661448D01*
X151432708Y-205428328D01*
X151333062Y-205233404D01*
X150942404Y-205233404D01*
X150881184Y-204996068D01*
X150817986Y-204689288D01*
X150763870Y-204356862D01*
X150721642Y-204020539D01*
X150712431Y-203915573D01*
X150704703Y-203787861D01*
X150698500Y-203643484D01*
X150693864Y-203488526D01*
X150690839Y-203329066D01*
X150689467Y-203171188D01*
X150689790Y-203020973D01*
X150691852Y-202884503D01*
X150695694Y-202767861D01*
X150701359Y-202677127D01*
X150708890Y-202618385D01*
X150711745Y-202607200D01*
X150722795Y-202576873D01*
X150728934Y-202575337D01*
X150731889Y-202606642D01*
X150733108Y-202657319D01*
X150739616Y-202816594D01*
X150753644Y-203005738D01*
X150774006Y-203215477D01*
X150799517Y-203436543D01*
X150828990Y-203659662D01*
X150861241Y-203875566D01*
X150895084Y-204074981D01*
X150929334Y-204248639D01*
X150945916Y-204321564D01*
X150976547Y-204443659D01*
X151009012Y-204564077D01*
X151041457Y-204676857D01*
X151072030Y-204776041D01*
X151098874Y-204855668D01*
X151120136Y-204909781D01*
X151133961Y-204932418D01*
X151136000Y-204932485D01*
X151154415Y-204900033D01*
X151163620Y-204836283D01*
X151163629Y-204748958D01*
X151154458Y-204645780D01*
X151136121Y-204534470D01*
X151135230Y-204530117D01*
X151106190Y-204380699D01*
X151082593Y-204237685D01*
X151063880Y-204094269D01*
X151049493Y-203943645D01*
X151038873Y-203779006D01*
X151031462Y-203593546D01*
X151026702Y-203380458D01*
X151024371Y-203178550D01*
X151021247Y-202788131D01*
X151136645Y-202788131D01*
X151138570Y-202866029D01*
X151142547Y-202963022D01*
X151148227Y-203072151D01*
X151155260Y-203186457D01*
X151163298Y-203298978D01*
X151171993Y-203402757D01*
X151177514Y-203459213D01*
X151188650Y-203553311D01*
X151203447Y-203661212D01*
X151220588Y-203775044D01*
X151238756Y-203886937D01*
X151256636Y-203989018D01*
X151272911Y-204073418D01*
X151286265Y-204132264D01*
X151293983Y-204155695D01*
X151304807Y-204147553D01*
X151324662Y-204107399D01*
X151350834Y-204041557D01*
X151380610Y-203956351D01*
X151384273Y-203945198D01*
X151429374Y-203810700D01*
X151469707Y-203697757D01*
X151503745Y-203610209D01*
X151529963Y-203551897D01*
X151546835Y-203526661D01*
X151550561Y-203526622D01*
X151549887Y-203548329D01*
X151541902Y-203601427D01*
X151527928Y-203678154D01*
X151509290Y-203770747D01*
X151507411Y-203779678D01*
X151481814Y-203906071D01*
X151454552Y-204049090D01*
X151429588Y-204187576D01*
X151416746Y-204263468D01*
X151377718Y-204502690D01*
X151438637Y-204677597D01*
X151489612Y-204811721D01*
X151552646Y-204958799D01*
X151622429Y-205107783D01*
X151693654Y-205247626D01*
X151761011Y-205367284D01*
X151798615Y-205426655D01*
X151894213Y-205553266D01*
X152010224Y-205683695D01*
X152134493Y-205805321D01*
X152254864Y-205905523D01*
X152271542Y-205917717D01*
X152332217Y-205957615D01*
X152406934Y-206001573D01*
X152487688Y-206045542D01*
X152566472Y-206085474D01*
X152635280Y-206117320D01*
X152686105Y-206137032D01*
X152710942Y-206140559D01*
X152711429Y-206140170D01*
X152707738Y-206119328D01*
X152690403Y-206071744D01*
X152662950Y-206006908D01*
X152656851Y-205993355D01*
X152597664Y-205857149D01*
X152531083Y-205694110D01*
X152461468Y-205515739D01*
X152393177Y-205333537D01*
X152330568Y-205159005D01*
X152278000Y-205003645D01*
X152258679Y-204942717D01*
X152225270Y-204831045D01*
X152189224Y-204704832D01*
X152152163Y-204570378D01*
X152115708Y-204433986D01*
X152081483Y-204301956D01*
X152051109Y-204180589D01*
X152026209Y-204076186D01*
X152008404Y-203995049D01*
X151999317Y-203943479D01*
X151998492Y-203932052D01*
X152005801Y-203939733D01*
X152026190Y-203980710D01*
X152057936Y-204051018D01*
X152099314Y-204146692D01*
X152148602Y-204263766D01*
X152204075Y-204398274D01*
X152246066Y-204501675D01*
X152334104Y-204718039D01*
X152411509Y-204903799D01*
X152481550Y-205065959D01*
X152547499Y-205211521D01*
X152612624Y-205347490D01*
X152680195Y-205480868D01*
X152753483Y-205618660D01*
X152835756Y-205767868D01*
X152844645Y-205783761D01*
X152924604Y-205925527D01*
X152988383Y-206035685D01*
X153038631Y-206118020D01*
X153078000Y-206176322D01*
X153109142Y-206214377D01*
X153134706Y-206235974D01*
X153157344Y-206244900D01*
X153168027Y-206245795D01*
X153204361Y-206235117D01*
X153264229Y-206206295D01*
X153338301Y-206164151D01*
X153393977Y-206129062D01*
X153475695Y-206072836D01*
X153576898Y-205999341D01*
X153686282Y-205916988D01*
X153792541Y-205834188D01*
X153822177Y-205810472D01*
X153841394Y-205794730D01*
X155004804Y-205794730D01*
X155014827Y-205804753D01*
X155024851Y-205794730D01*
X155014827Y-205784706D01*
X155004804Y-205794730D01*
X153841394Y-205794730D01*
X153862085Y-205777781D01*
X155044898Y-205777781D01*
X155060223Y-205773984D01*
X155106030Y-205744612D01*
X155182071Y-205689841D01*
X155288094Y-205609849D01*
X155341862Y-205568497D01*
X155409375Y-205514869D01*
X155461901Y-205470310D01*
X155493272Y-205440239D01*
X155499134Y-205430365D01*
X155481477Y-205438860D01*
X155439490Y-205467193D01*
X155380089Y-205510078D01*
X155310188Y-205562224D01*
X155236702Y-205618344D01*
X155166545Y-205673149D01*
X155106632Y-205721350D01*
X155063879Y-205757659D01*
X155045199Y-205776787D01*
X155044898Y-205777781D01*
X153862085Y-205777781D01*
X153908464Y-205739790D01*
X154003202Y-205660280D01*
X154101800Y-205576008D01*
X154199667Y-205491038D01*
X154292214Y-205409435D01*
X154374850Y-205335265D01*
X154442985Y-205272591D01*
X154492028Y-205225480D01*
X154517389Y-205197996D01*
X154519682Y-205192799D01*
X154499628Y-205184011D01*
X154449371Y-205164371D01*
X154376383Y-205136742D01*
X154288136Y-205103988D01*
X154283626Y-205102330D01*
X153816700Y-204910180D01*
X153365964Y-204683678D01*
X152934127Y-204424823D01*
X152523895Y-204135616D01*
X152137976Y-203818059D01*
X151779078Y-203474152D01*
X151449907Y-203105895D01*
X151266859Y-202872828D01*
X151216236Y-202806388D01*
X151174485Y-202754130D01*
X151147298Y-202723043D01*
X151140343Y-202717461D01*
X151137119Y-202736288D01*
X151136645Y-202788131D01*
X151021247Y-202788131D01*
X151019156Y-202527011D01*
X150885117Y-202306490D01*
X150640457Y-201865715D01*
X150431570Y-201407201D01*
X150258382Y-200930725D01*
X150120817Y-200436065D01*
X150018801Y-199922996D01*
X149970436Y-199570026D01*
X149961090Y-199458382D01*
X149954159Y-199315877D01*
X149949645Y-199151673D01*
X149947547Y-198974932D01*
X149947864Y-198794815D01*
X149950598Y-198620483D01*
X149955748Y-198461098D01*
X149963314Y-198325821D01*
X149970436Y-198246900D01*
X150049102Y-197720419D01*
X150163843Y-197211422D01*
X150314697Y-196719817D01*
X150501700Y-196245514D01*
X150724890Y-195788421D01*
X150984305Y-195348448D01*
X151279982Y-194925503D01*
X151394259Y-194778708D01*
X151496318Y-194657120D01*
X151620637Y-194518438D01*
X151758784Y-194371369D01*
X151902329Y-194224621D01*
X152042841Y-194086901D01*
X152171888Y-193966916D01*
X152228245Y-193917355D01*
X152631438Y-193597304D01*
X153055369Y-193311264D01*
X153498516Y-193059899D01*
X153959360Y-192843872D01*
X154436378Y-192663844D01*
X154928050Y-192520478D01*
X155432856Y-192414438D01*
X155796674Y-192362372D01*
X155945865Y-192348873D01*
X156123700Y-192338902D01*
X156319772Y-192332540D01*
X156523675Y-192329868D01*
X156725003Y-192330965D01*
X156913349Y-192335912D01*
X157078307Y-192344790D01*
X157159894Y-192351846D01*
X157679062Y-192424541D01*
X158182092Y-192533891D01*
X158669412Y-192680072D01*
X159141449Y-192863261D01*
X159598629Y-193083634D01*
X160041381Y-193341368D01*
X160470132Y-193636639D01*
X160698253Y-193813585D01*
X160785759Y-193887693D01*
X160890133Y-193981609D01*
X161005293Y-194089332D01*
X161125154Y-194204860D01*
X161243633Y-194322192D01*
X161354648Y-194435326D01*
X161452114Y-194538261D01*
X161529948Y-194624996D01*
X161570313Y-194673909D01*
X161612726Y-194726745D01*
X161645340Y-194764157D01*
X161660526Y-194777681D01*
X161671614Y-194760592D01*
X161698441Y-194711833D01*
X161738822Y-194635596D01*
X161790569Y-194536075D01*
X161851497Y-194417465D01*
X161919419Y-194283958D01*
X161965818Y-194192100D01*
X162109683Y-193909442D01*
X162248042Y-193643393D01*
X162379696Y-193396027D01*
X162503446Y-193169419D01*
X162618094Y-192965643D01*
X162722441Y-192786774D01*
X162815287Y-192634887D01*
X162895435Y-192512055D01*
X162961686Y-192420354D01*
X163012840Y-192361859D01*
X163032972Y-192345320D01*
X163067784Y-192324666D01*
X163080270Y-192324811D01*
G36*
X161199437Y-197034035D02*
X161189413Y-197044059D01*
X161179389Y-197034035D01*
X161189413Y-197024012D01*
X161199437Y-197034035D01*
X161199437Y-197034035D01*
G37*
X161199437Y-197034035D02*
X161189413Y-197044059D01*
X161179389Y-197034035D01*
X161189413Y-197024012D01*
X161199437Y-197034035D01*
G36*
X169650396Y-187855364D02*
X169781617Y-187874290D01*
X169888456Y-187905351D01*
X169904753Y-187912407D01*
X169970155Y-187942715D01*
X169910013Y-187932541D01*
X169700696Y-187909066D01*
X169504637Y-187910629D01*
X169330744Y-187937134D01*
X169323563Y-187938916D01*
X169120924Y-188005555D01*
X168909759Y-188105412D01*
X168689350Y-188239073D01*
X168458976Y-188407123D01*
X168217916Y-188610149D01*
X167965451Y-188848738D01*
X167700860Y-189123476D01*
X167423422Y-189434949D01*
X167285174Y-189598039D01*
X167157095Y-189752726D01*
X167034734Y-189903569D01*
X166916174Y-190053339D01*
X166799497Y-190204810D01*
X166682786Y-190360751D01*
X166564123Y-190523936D01*
X166441592Y-190697136D01*
X166313273Y-190883123D01*
X166177251Y-191084669D01*
X166031607Y-191304545D01*
X165874424Y-191545524D01*
X165703784Y-191810377D01*
X165517770Y-192101876D01*
X165314465Y-192422793D01*
X165143614Y-192693783D01*
X164754004Y-193322057D01*
X164379270Y-193944898D01*
X164025437Y-194552254D01*
X163936386Y-194708542D01*
X163855909Y-194849746D01*
X163762672Y-195012150D01*
X163664353Y-195182458D01*
X163568627Y-195347373D01*
X163484635Y-195491103D01*
X163400977Y-195634510D01*
X163309209Y-195793325D01*
X163216414Y-195955192D01*
X163129673Y-196107754D01*
X163056070Y-196238655D01*
X163053715Y-196242879D01*
X162990238Y-196356571D01*
X162930019Y-196464068D01*
X162877064Y-196558244D01*
X162835382Y-196631974D01*
X162808976Y-196678135D01*
X162808145Y-196679564D01*
X162757715Y-196766135D01*
X162679888Y-196559280D01*
X162639068Y-196456977D01*
X162588318Y-196339482D01*
X162530184Y-196211792D01*
X162467213Y-196078899D01*
X162401950Y-195945801D01*
X162336941Y-195817490D01*
X162274733Y-195698962D01*
X162217871Y-195595212D01*
X162168902Y-195511235D01*
X162130371Y-195452025D01*
X162104824Y-195422577D01*
X162099274Y-195420223D01*
X162085804Y-195436984D01*
X162056888Y-195483461D01*
X162015863Y-195553947D01*
X161966063Y-195642734D01*
X161920612Y-195725945D01*
X161847223Y-195861318D01*
X161768528Y-196005554D01*
X161686922Y-196154346D01*
X161604803Y-196303386D01*
X161524568Y-196448364D01*
X161448613Y-196584974D01*
X161379334Y-196708907D01*
X161319129Y-196815855D01*
X161270394Y-196901510D01*
X161235526Y-196961564D01*
X161216921Y-196991708D01*
X161215209Y-196993940D01*
X161213819Y-196985140D01*
X161224475Y-196945615D01*
X161245152Y-196882184D01*
X161265832Y-196823538D01*
X161316054Y-196685544D01*
X161371880Y-196533317D01*
X161431714Y-196371107D01*
X161493961Y-196203163D01*
X161557026Y-196033736D01*
X161619312Y-195867076D01*
X161679223Y-195707433D01*
X161735165Y-195559057D01*
X161785541Y-195426198D01*
X161828756Y-195313105D01*
X161863213Y-195224030D01*
X161887319Y-195163222D01*
X161899476Y-195134931D01*
X161900336Y-195133546D01*
X161917245Y-195141386D01*
X161948960Y-195176479D01*
X161989407Y-195231849D01*
X162000678Y-195248819D01*
X162042494Y-195310621D01*
X162076576Y-195356624D01*
X162096825Y-195378712D01*
X162098910Y-195379555D01*
X162111603Y-195362489D01*
X162140139Y-195315000D01*
X162181663Y-195242134D01*
X162233323Y-195148939D01*
X162292266Y-195040459D01*
X162322088Y-194984851D01*
X162392320Y-194854087D01*
X162476405Y-194698714D01*
X162568672Y-194529138D01*
X162663449Y-194355770D01*
X162755064Y-194189017D01*
X162810673Y-194088305D01*
X162891396Y-193942217D01*
X162986219Y-193770200D01*
X163090046Y-193581526D01*
X163197779Y-193385465D01*
X163304323Y-193191289D01*
X163404580Y-193008269D01*
X163439532Y-192944375D01*
X163601975Y-192649646D01*
X163761533Y-192364741D01*
X163916476Y-192092559D01*
X164065076Y-191835999D01*
X164205605Y-191597962D01*
X164336334Y-191381346D01*
X164455535Y-191189052D01*
X164561480Y-191023979D01*
X164652441Y-190889026D01*
X164721145Y-190794303D01*
X164817383Y-190678260D01*
X164903214Y-190594827D01*
X164977216Y-190544797D01*
X165037966Y-190528966D01*
X165084042Y-190548126D01*
X165105453Y-190579730D01*
X165125299Y-190633281D01*
X165128715Y-190664765D01*
X165117420Y-190668969D01*
X165093136Y-190640682D01*
X165088012Y-190632550D01*
X165049327Y-190585563D01*
X165013386Y-190572430D01*
X165012910Y-190572515D01*
X164975234Y-190596564D01*
X164923054Y-190656614D01*
X164857004Y-190751541D01*
X164777718Y-190880221D01*
X164685830Y-191041527D01*
X164581974Y-191234335D01*
X164466783Y-191457521D01*
X164340893Y-191709958D01*
X164204936Y-191990522D01*
X164156416Y-192092362D01*
X164108632Y-192194182D01*
X164050309Y-192320305D01*
X163982915Y-192467431D01*
X163907918Y-192632261D01*
X163826784Y-192811496D01*
X163740981Y-193001836D01*
X163651978Y-193199981D01*
X163561240Y-193402634D01*
X163470236Y-193606493D01*
X163380434Y-193808261D01*
X163293300Y-194004637D01*
X163210303Y-194192322D01*
X163132909Y-194368018D01*
X163062586Y-194528424D01*
X163000802Y-194670241D01*
X162949025Y-194790170D01*
X162908721Y-194884911D01*
X162881358Y-194951166D01*
X162868404Y-194985635D01*
X162867644Y-194989879D01*
X162879918Y-194975534D01*
X162911347Y-194932307D01*
X162958824Y-194864660D01*
X163019239Y-194777057D01*
X163089483Y-194673958D01*
X163144030Y-194593187D01*
X163234960Y-194458900D01*
X163342612Y-194301331D01*
X163464239Y-194124405D01*
X163597093Y-193932050D01*
X163738427Y-193728190D01*
X163885492Y-193516751D01*
X164035540Y-193301659D01*
X164185825Y-193086841D01*
X164333597Y-192876221D01*
X164476109Y-192673725D01*
X164610614Y-192483281D01*
X164734363Y-192308812D01*
X164844609Y-192154246D01*
X164938604Y-192023508D01*
X165013600Y-191920523D01*
X165034757Y-191891888D01*
X165400712Y-191405274D01*
X165749707Y-190953839D01*
X166082500Y-190536794D01*
X166399845Y-190153350D01*
X166702502Y-189802718D01*
X166991225Y-189484110D01*
X167266772Y-189196736D01*
X167529899Y-188939807D01*
X167781363Y-188712534D01*
X168021922Y-188514128D01*
X168252330Y-188343801D01*
X168473346Y-188200762D01*
X168685726Y-188084224D01*
X168687124Y-188083529D01*
X168845435Y-188007975D01*
X168980176Y-187951257D01*
X169101215Y-187910091D01*
X169218422Y-187881193D01*
X169341667Y-187861279D01*
X169362841Y-187858679D01*
X169506801Y-187849764D01*
X169650396Y-187855364D01*
X169650396Y-187855364D01*
G37*
X169650396Y-187855364D02*
X169781617Y-187874290D01*
X169888456Y-187905351D01*
X169904753Y-187912407D01*
X169970155Y-187942715D01*
X169910013Y-187932541D01*
X169700696Y-187909066D01*
X169504637Y-187910629D01*
X169330744Y-187937134D01*
X169323563Y-187938916D01*
X169120924Y-188005555D01*
X168909759Y-188105412D01*
X168689350Y-188239073D01*
X168458976Y-188407123D01*
X168217916Y-188610149D01*
X167965451Y-188848738D01*
X167700860Y-189123476D01*
X167423422Y-189434949D01*
X167285174Y-189598039D01*
X167157095Y-189752726D01*
X167034734Y-189903569D01*
X166916174Y-190053339D01*
X166799497Y-190204810D01*
X166682786Y-190360751D01*
X166564123Y-190523936D01*
X166441592Y-190697136D01*
X166313273Y-190883123D01*
X166177251Y-191084669D01*
X166031607Y-191304545D01*
X165874424Y-191545524D01*
X165703784Y-191810377D01*
X165517770Y-192101876D01*
X165314465Y-192422793D01*
X165143614Y-192693783D01*
X164754004Y-193322057D01*
X164379270Y-193944898D01*
X164025437Y-194552254D01*
X163936386Y-194708542D01*
X163855909Y-194849746D01*
X163762672Y-195012150D01*
X163664353Y-195182458D01*
X163568627Y-195347373D01*
X163484635Y-195491103D01*
X163400977Y-195634510D01*
X163309209Y-195793325D01*
X163216414Y-195955192D01*
X163129673Y-196107754D01*
X163056070Y-196238655D01*
X163053715Y-196242879D01*
X162990238Y-196356571D01*
X162930019Y-196464068D01*
X162877064Y-196558244D01*
X162835382Y-196631974D01*
X162808976Y-196678135D01*
X162808145Y-196679564D01*
X162757715Y-196766135D01*
X162679888Y-196559280D01*
X162639068Y-196456977D01*
X162588318Y-196339482D01*
X162530184Y-196211792D01*
X162467213Y-196078899D01*
X162401950Y-195945801D01*
X162336941Y-195817490D01*
X162274733Y-195698962D01*
X162217871Y-195595212D01*
X162168902Y-195511235D01*
X162130371Y-195452025D01*
X162104824Y-195422577D01*
X162099274Y-195420223D01*
X162085804Y-195436984D01*
X162056888Y-195483461D01*
X162015863Y-195553947D01*
X161966063Y-195642734D01*
X161920612Y-195725945D01*
X161847223Y-195861318D01*
X161768528Y-196005554D01*
X161686922Y-196154346D01*
X161604803Y-196303386D01*
X161524568Y-196448364D01*
X161448613Y-196584974D01*
X161379334Y-196708907D01*
X161319129Y-196815855D01*
X161270394Y-196901510D01*
X161235526Y-196961564D01*
X161216921Y-196991708D01*
X161215209Y-196993940D01*
X161213819Y-196985140D01*
X161224475Y-196945615D01*
X161245152Y-196882184D01*
X161265832Y-196823538D01*
X161316054Y-196685544D01*
X161371880Y-196533317D01*
X161431714Y-196371107D01*
X161493961Y-196203163D01*
X161557026Y-196033736D01*
X161619312Y-195867076D01*
X161679223Y-195707433D01*
X161735165Y-195559057D01*
X161785541Y-195426198D01*
X161828756Y-195313105D01*
X161863213Y-195224030D01*
X161887319Y-195163222D01*
X161899476Y-195134931D01*
X161900336Y-195133546D01*
X161917245Y-195141386D01*
X161948960Y-195176479D01*
X161989407Y-195231849D01*
X162000678Y-195248819D01*
X162042494Y-195310621D01*
X162076576Y-195356624D01*
X162096825Y-195378712D01*
X162098910Y-195379555D01*
X162111603Y-195362489D01*
X162140139Y-195315000D01*
X162181663Y-195242134D01*
X162233323Y-195148939D01*
X162292266Y-195040459D01*
X162322088Y-194984851D01*
X162392320Y-194854087D01*
X162476405Y-194698714D01*
X162568672Y-194529138D01*
X162663449Y-194355770D01*
X162755064Y-194189017D01*
X162810673Y-194088305D01*
X162891396Y-193942217D01*
X162986219Y-193770200D01*
X163090046Y-193581526D01*
X163197779Y-193385465D01*
X163304323Y-193191289D01*
X163404580Y-193008269D01*
X163439532Y-192944375D01*
X163601975Y-192649646D01*
X163761533Y-192364741D01*
X163916476Y-192092559D01*
X164065076Y-191835999D01*
X164205605Y-191597962D01*
X164336334Y-191381346D01*
X164455535Y-191189052D01*
X164561480Y-191023979D01*
X164652441Y-190889026D01*
X164721145Y-190794303D01*
X164817383Y-190678260D01*
X164903214Y-190594827D01*
X164977216Y-190544797D01*
X165037966Y-190528966D01*
X165084042Y-190548126D01*
X165105453Y-190579730D01*
X165125299Y-190633281D01*
X165128715Y-190664765D01*
X165117420Y-190668969D01*
X165093136Y-190640682D01*
X165088012Y-190632550D01*
X165049327Y-190585563D01*
X165013386Y-190572430D01*
X165012910Y-190572515D01*
X164975234Y-190596564D01*
X164923054Y-190656614D01*
X164857004Y-190751541D01*
X164777718Y-190880221D01*
X164685830Y-191041527D01*
X164581974Y-191234335D01*
X164466783Y-191457521D01*
X164340893Y-191709958D01*
X164204936Y-191990522D01*
X164156416Y-192092362D01*
X164108632Y-192194182D01*
X164050309Y-192320305D01*
X163982915Y-192467431D01*
X163907918Y-192632261D01*
X163826784Y-192811496D01*
X163740981Y-193001836D01*
X163651978Y-193199981D01*
X163561240Y-193402634D01*
X163470236Y-193606493D01*
X163380434Y-193808261D01*
X163293300Y-194004637D01*
X163210303Y-194192322D01*
X163132909Y-194368018D01*
X163062586Y-194528424D01*
X163000802Y-194670241D01*
X162949025Y-194790170D01*
X162908721Y-194884911D01*
X162881358Y-194951166D01*
X162868404Y-194985635D01*
X162867644Y-194989879D01*
X162879918Y-194975534D01*
X162911347Y-194932307D01*
X162958824Y-194864660D01*
X163019239Y-194777057D01*
X163089483Y-194673958D01*
X163144030Y-194593187D01*
X163234960Y-194458900D01*
X163342612Y-194301331D01*
X163464239Y-194124405D01*
X163597093Y-193932050D01*
X163738427Y-193728190D01*
X163885492Y-193516751D01*
X164035540Y-193301659D01*
X164185825Y-193086841D01*
X164333597Y-192876221D01*
X164476109Y-192673725D01*
X164610614Y-192483281D01*
X164734363Y-192308812D01*
X164844609Y-192154246D01*
X164938604Y-192023508D01*
X165013600Y-191920523D01*
X165034757Y-191891888D01*
X165400712Y-191405274D01*
X165749707Y-190953839D01*
X166082500Y-190536794D01*
X166399845Y-190153350D01*
X166702502Y-189802718D01*
X166991225Y-189484110D01*
X167266772Y-189196736D01*
X167529899Y-188939807D01*
X167781363Y-188712534D01*
X168021922Y-188514128D01*
X168252330Y-188343801D01*
X168473346Y-188200762D01*
X168685726Y-188084224D01*
X168687124Y-188083529D01*
X168845435Y-188007975D01*
X168980176Y-187951257D01*
X169101215Y-187910091D01*
X169218422Y-187881193D01*
X169341667Y-187861279D01*
X169362841Y-187858679D01*
X169506801Y-187849764D01*
X169650396Y-187855364D01*
D15*
X159320411Y-130240337D02*
G75*
G03X159334000Y-133703000I4763589J-1712663D01*
G01*
X162371337Y-136716589D02*
G75*
G03X165834000Y-136703000I1712663J4763589D01*
G01*
X168847589Y-133665663D02*
G75*
G03X168834000Y-130203000I-4763589J1712663D01*
G01*
X165796663Y-127189411D02*
G75*
G03X162334000Y-127203000I-1712663J-4763589D01*
G01*
X159320411Y-142559337D02*
G75*
G03X159334000Y-146022000I4763589J-1712663D01*
G01*
X162371337Y-149035589D02*
G75*
G03X165834000Y-149022000I1712663J4763589D01*
G01*
X168847589Y-145984663D02*
G75*
G03X168834000Y-142522000I-4763589J1712663D01*
G01*
X165796663Y-139508411D02*
G75*
G03X162334000Y-139522000I-1712663J-4763589D01*
G01*
X159320411Y-154624337D02*
G75*
G03X159334000Y-158087000I4763589J-1712663D01*
G01*
X162371337Y-161100589D02*
G75*
G03X165834000Y-161087000I1712663J4763589D01*
G01*
X168847589Y-158049663D02*
G75*
G03X168834000Y-154587000I-4763589J1712663D01*
G01*
X165796663Y-151573411D02*
G75*
G03X162334000Y-151587000I-1712663J-4763589D01*
G01*
X159066411Y-117921337D02*
G75*
G03X159080000Y-121384000I4763589J-1712663D01*
G01*
X162117337Y-124397589D02*
G75*
G03X165580000Y-124384000I1712663J4763589D01*
G01*
X168593589Y-121346663D02*
G75*
G03X168580000Y-117884000I-4763589J1712663D01*
G01*
X165542663Y-114870411D02*
G75*
G03X162080000Y-114884000I-1712663J-4763589D01*
G01*
D14*
X150050500Y-114554000D02*
X150050500Y-124714000D01*
X151574500Y-114554000D02*
X150050500Y-114554000D01*
X150050500Y-124714000D02*
X151574500Y-124714000D01*
X156654500Y-124714000D02*
X156654500Y-114554000D01*
X151574500Y-114554000D02*
X151574500Y-124714000D01*
X156654500Y-124714000D02*
X151574500Y-124714000D01*
X156654500Y-114554000D02*
X151574500Y-114554000D01*
X150050500Y-126873000D02*
X150050500Y-137033000D01*
X151574500Y-126873000D02*
X150050500Y-126873000D01*
X150050500Y-137033000D02*
X151574500Y-137033000D01*
X156654500Y-137033000D02*
X156654500Y-126873000D01*
X151574500Y-126873000D02*
X151574500Y-137033000D01*
X156654500Y-137033000D02*
X151574500Y-137033000D01*
X156654500Y-126873000D02*
X151574500Y-126873000D01*
X150050500Y-139128500D02*
X150050500Y-149288500D01*
X151574500Y-139128500D02*
X150050500Y-139128500D01*
X150050500Y-149288500D02*
X151574500Y-149288500D01*
X156654500Y-149288500D02*
X156654500Y-139128500D01*
X151574500Y-139128500D02*
X151574500Y-149288500D01*
X156654500Y-149288500D02*
X151574500Y-149288500D01*
X156654500Y-139128500D02*
X151574500Y-139128500D01*
X150050500Y-151193500D02*
X150050500Y-161353500D01*
X151574500Y-151193500D02*
X150050500Y-151193500D01*
X150050500Y-161353500D02*
X151574500Y-161353500D01*
X156654500Y-161353500D02*
X156654500Y-151193500D01*
X151574500Y-151193500D02*
X151574500Y-161353500D01*
X156654500Y-161353500D02*
X151574500Y-161353500D01*
X156654500Y-151193500D02*
X151574500Y-151193500D01*
X139695941Y-179237853D02*
X139695941Y-179047376D01*
X139743560Y-178952138D01*
X139838798Y-178856900D01*
X140029274Y-178809281D01*
X140362608Y-178809281D01*
X140553084Y-178856900D01*
X140648322Y-178952138D01*
X140695941Y-179047376D01*
X140695941Y-179237853D01*
X140648322Y-179333091D01*
X140553084Y-179428329D01*
X140362608Y-179475948D01*
X140029274Y-179475948D01*
X139838798Y-179428329D01*
X139743560Y-179333091D01*
X139695941Y-179237853D01*
X140695941Y-178380710D02*
X139695941Y-178380710D01*
X140695941Y-177809281D02*
X140124512Y-178237853D01*
X139695941Y-177809281D02*
X140267370Y-178380710D01*
X140695941Y-177380710D02*
X139695941Y-177380710D01*
X112968043Y-185650166D02*
X113015662Y-185697785D01*
X113063281Y-185840642D01*
X113063281Y-185935880D01*
X113015662Y-186078738D01*
X112920424Y-186173976D01*
X112825186Y-186221595D01*
X112634710Y-186269214D01*
X112491852Y-186269214D01*
X112301376Y-186221595D01*
X112206138Y-186173976D01*
X112110900Y-186078738D01*
X112063281Y-185935880D01*
X112063281Y-185840642D01*
X112110900Y-185697785D01*
X112158519Y-185650166D01*
X112158519Y-185269214D02*
X112110900Y-185221595D01*
X112063281Y-185126357D01*
X112063281Y-184888261D01*
X112110900Y-184793023D01*
X112158519Y-184745404D01*
X112253757Y-184697785D01*
X112348995Y-184697785D01*
X112491852Y-184745404D01*
X113063281Y-185316833D01*
X113063281Y-184697785D01*
X112841043Y-175261566D02*
X112888662Y-175309185D01*
X112936281Y-175452042D01*
X112936281Y-175547280D01*
X112888662Y-175690138D01*
X112793424Y-175785376D01*
X112698186Y-175832995D01*
X112507710Y-175880614D01*
X112364852Y-175880614D01*
X112174376Y-175832995D01*
X112079138Y-175785376D01*
X111983900Y-175690138D01*
X111936281Y-175547280D01*
X111936281Y-175452042D01*
X111983900Y-175309185D01*
X112031519Y-175261566D01*
X111936281Y-174928233D02*
X111936281Y-174309185D01*
X112317233Y-174642519D01*
X112317233Y-174499661D01*
X112364852Y-174404423D01*
X112412471Y-174356804D01*
X112507710Y-174309185D01*
X112745805Y-174309185D01*
X112841043Y-174356804D01*
X112888662Y-174404423D01*
X112936281Y-174499661D01*
X112936281Y-174785376D01*
X112888662Y-174880614D01*
X112841043Y-174928233D01*
X133732543Y-167197066D02*
X133780162Y-167244685D01*
X133827781Y-167387542D01*
X133827781Y-167482780D01*
X133780162Y-167625638D01*
X133684924Y-167720876D01*
X133589686Y-167768495D01*
X133399210Y-167816114D01*
X133256352Y-167816114D01*
X133065876Y-167768495D01*
X132970638Y-167720876D01*
X132875400Y-167625638D01*
X132827781Y-167482780D01*
X132827781Y-167387542D01*
X132875400Y-167244685D01*
X132923019Y-167197066D01*
X133161114Y-166339923D02*
X133827781Y-166339923D01*
X132780162Y-166578019D02*
X133494448Y-166816114D01*
X133494448Y-166197066D01*
X115444543Y-185573966D02*
X115492162Y-185621585D01*
X115539781Y-185764442D01*
X115539781Y-185859680D01*
X115492162Y-186002538D01*
X115396924Y-186097776D01*
X115301686Y-186145395D01*
X115111210Y-186193014D01*
X114968352Y-186193014D01*
X114777876Y-186145395D01*
X114682638Y-186097776D01*
X114587400Y-186002538D01*
X114539781Y-185859680D01*
X114539781Y-185764442D01*
X114587400Y-185621585D01*
X114635019Y-185573966D01*
X114539781Y-184669204D02*
X114539781Y-185145395D01*
X115015971Y-185193014D01*
X114968352Y-185145395D01*
X114920733Y-185050157D01*
X114920733Y-184812061D01*
X114968352Y-184716823D01*
X115015971Y-184669204D01*
X115111210Y-184621585D01*
X115349305Y-184621585D01*
X115444543Y-184669204D01*
X115492162Y-184716823D01*
X115539781Y-184812061D01*
X115539781Y-185050157D01*
X115492162Y-185145395D01*
X115444543Y-185193014D01*
X111583743Y-173953466D02*
X111631362Y-174001085D01*
X111678981Y-174143942D01*
X111678981Y-174239180D01*
X111631362Y-174382038D01*
X111536124Y-174477276D01*
X111440886Y-174524895D01*
X111250410Y-174572514D01*
X111107552Y-174572514D01*
X110917076Y-174524895D01*
X110821838Y-174477276D01*
X110726600Y-174382038D01*
X110678981Y-174239180D01*
X110678981Y-174143942D01*
X110726600Y-174001085D01*
X110774219Y-173953466D01*
X110678981Y-173096323D02*
X110678981Y-173286800D01*
X110726600Y-173382038D01*
X110774219Y-173429657D01*
X110917076Y-173524895D01*
X111107552Y-173572514D01*
X111488505Y-173572514D01*
X111583743Y-173524895D01*
X111631362Y-173477276D01*
X111678981Y-173382038D01*
X111678981Y-173191561D01*
X111631362Y-173096323D01*
X111583743Y-173048704D01*
X111488505Y-173001085D01*
X111250410Y-173001085D01*
X111155171Y-173048704D01*
X111107552Y-173096323D01*
X111059933Y-173191561D01*
X111059933Y-173382038D01*
X111107552Y-173477276D01*
X111155171Y-173524895D01*
X111250410Y-173572514D01*
X134900943Y-167273266D02*
X134948562Y-167320885D01*
X134996181Y-167463742D01*
X134996181Y-167558980D01*
X134948562Y-167701838D01*
X134853324Y-167797076D01*
X134758086Y-167844695D01*
X134567610Y-167892314D01*
X134424752Y-167892314D01*
X134234276Y-167844695D01*
X134139038Y-167797076D01*
X134043800Y-167701838D01*
X133996181Y-167558980D01*
X133996181Y-167463742D01*
X134043800Y-167320885D01*
X134091419Y-167273266D01*
X133996181Y-166939933D02*
X133996181Y-166273266D01*
X134996181Y-166701838D01*
X114187243Y-185612066D02*
X114234862Y-185659685D01*
X114282481Y-185802542D01*
X114282481Y-185897780D01*
X114234862Y-186040638D01*
X114139624Y-186135876D01*
X114044386Y-186183495D01*
X113853910Y-186231114D01*
X113711052Y-186231114D01*
X113520576Y-186183495D01*
X113425338Y-186135876D01*
X113330100Y-186040638D01*
X113282481Y-185897780D01*
X113282481Y-185802542D01*
X113330100Y-185659685D01*
X113377719Y-185612066D01*
X114282481Y-185135876D02*
X114282481Y-184945400D01*
X114234862Y-184850161D01*
X114187243Y-184802542D01*
X114044386Y-184707304D01*
X113853910Y-184659685D01*
X113472957Y-184659685D01*
X113377719Y-184707304D01*
X113330100Y-184754923D01*
X113282481Y-184850161D01*
X113282481Y-185040638D01*
X113330100Y-185135876D01*
X113377719Y-185183495D01*
X113472957Y-185231114D01*
X113711052Y-185231114D01*
X113806290Y-185183495D01*
X113853910Y-185135876D01*
X113901529Y-185040638D01*
X113901529Y-184850161D01*
X113853910Y-184754923D01*
X113806290Y-184707304D01*
X113711052Y-184659685D01*
X116667043Y-175782243D02*
X116619424Y-175829862D01*
X116476567Y-175877481D01*
X116381329Y-175877481D01*
X116238471Y-175829862D01*
X116143233Y-175734624D01*
X116095614Y-175639386D01*
X116047995Y-175448910D01*
X116047995Y-175306052D01*
X116095614Y-175115576D01*
X116143233Y-175020338D01*
X116238471Y-174925100D01*
X116381329Y-174877481D01*
X116476567Y-174877481D01*
X116619424Y-174925100D01*
X116667043Y-174972719D01*
X117619424Y-175877481D02*
X117047995Y-175877481D01*
X117333709Y-175877481D02*
X117333709Y-174877481D01*
X117238471Y-175020338D01*
X117143233Y-175115576D01*
X117047995Y-175163195D01*
X118238471Y-174877481D02*
X118333710Y-174877481D01*
X118428948Y-174925100D01*
X118476567Y-174972719D01*
X118524186Y-175067957D01*
X118571805Y-175258433D01*
X118571805Y-175496529D01*
X118524186Y-175687005D01*
X118476567Y-175782243D01*
X118428948Y-175829862D01*
X118333710Y-175877481D01*
X118238471Y-175877481D01*
X118143233Y-175829862D01*
X118095614Y-175782243D01*
X118047995Y-175687005D01*
X118000376Y-175496529D01*
X118000376Y-175258433D01*
X118047995Y-175067957D01*
X118095614Y-174972719D01*
X118143233Y-174925100D01*
X118238471Y-174877481D01*
X136082043Y-167304957D02*
X136129662Y-167352576D01*
X136177281Y-167495433D01*
X136177281Y-167590671D01*
X136129662Y-167733529D01*
X136034424Y-167828767D01*
X135939186Y-167876386D01*
X135748710Y-167924005D01*
X135605852Y-167924005D01*
X135415376Y-167876386D01*
X135320138Y-167828767D01*
X135224900Y-167733529D01*
X135177281Y-167590671D01*
X135177281Y-167495433D01*
X135224900Y-167352576D01*
X135272519Y-167304957D01*
X136177281Y-166352576D02*
X136177281Y-166924005D01*
X136177281Y-166638291D02*
X135177281Y-166638291D01*
X135320138Y-166733529D01*
X135415376Y-166828767D01*
X135462995Y-166924005D01*
X136177281Y-165400195D02*
X136177281Y-165971624D01*
X136177281Y-165685910D02*
X135177281Y-165685910D01*
X135320138Y-165781148D01*
X135415376Y-165876386D01*
X135462995Y-165971624D01*
X117819443Y-186532757D02*
X117867062Y-186580376D01*
X117914681Y-186723233D01*
X117914681Y-186818471D01*
X117867062Y-186961329D01*
X117771824Y-187056567D01*
X117676586Y-187104186D01*
X117486110Y-187151805D01*
X117343252Y-187151805D01*
X117152776Y-187104186D01*
X117057538Y-187056567D01*
X116962300Y-186961329D01*
X116914681Y-186818471D01*
X116914681Y-186723233D01*
X116962300Y-186580376D01*
X117009919Y-186532757D01*
X117914681Y-185580376D02*
X117914681Y-186151805D01*
X117914681Y-185866091D02*
X116914681Y-185866091D01*
X117057538Y-185961329D01*
X117152776Y-186056567D01*
X117200395Y-186151805D01*
X117009919Y-185199424D02*
X116962300Y-185151805D01*
X116914681Y-185056567D01*
X116914681Y-184818471D01*
X116962300Y-184723233D01*
X117009919Y-184675614D01*
X117105157Y-184627995D01*
X117200395Y-184627995D01*
X117343252Y-184675614D01*
X117914681Y-185247043D01*
X117914681Y-184627995D01*
X112933243Y-180481243D02*
X112885624Y-180528862D01*
X112742767Y-180576481D01*
X112647529Y-180576481D01*
X112504671Y-180528862D01*
X112409433Y-180433624D01*
X112361814Y-180338386D01*
X112314195Y-180147910D01*
X112314195Y-180005052D01*
X112361814Y-179814576D01*
X112409433Y-179719338D01*
X112504671Y-179624100D01*
X112647529Y-179576481D01*
X112742767Y-179576481D01*
X112885624Y-179624100D01*
X112933243Y-179671719D01*
X113885624Y-180576481D02*
X113314195Y-180576481D01*
X113599909Y-180576481D02*
X113599909Y-179576481D01*
X113504671Y-179719338D01*
X113409433Y-179814576D01*
X113314195Y-179862195D01*
X114218957Y-179576481D02*
X114838005Y-179576481D01*
X114504671Y-179957433D01*
X114647529Y-179957433D01*
X114742767Y-180005052D01*
X114790386Y-180052671D01*
X114838005Y-180147910D01*
X114838005Y-180386005D01*
X114790386Y-180481243D01*
X114742767Y-180528862D01*
X114647529Y-180576481D01*
X114361814Y-180576481D01*
X114266576Y-180528862D01*
X114218957Y-180481243D01*
X137263143Y-167304957D02*
X137310762Y-167352576D01*
X137358381Y-167495433D01*
X137358381Y-167590671D01*
X137310762Y-167733529D01*
X137215524Y-167828767D01*
X137120286Y-167876386D01*
X136929810Y-167924005D01*
X136786952Y-167924005D01*
X136596476Y-167876386D01*
X136501238Y-167828767D01*
X136406000Y-167733529D01*
X136358381Y-167590671D01*
X136358381Y-167495433D01*
X136406000Y-167352576D01*
X136453619Y-167304957D01*
X137358381Y-166352576D02*
X137358381Y-166924005D01*
X137358381Y-166638291D02*
X136358381Y-166638291D01*
X136501238Y-166733529D01*
X136596476Y-166828767D01*
X136644095Y-166924005D01*
X136691714Y-165495433D02*
X137358381Y-165495433D01*
X136310762Y-165733529D02*
X137025048Y-165971624D01*
X137025048Y-165352576D01*
X116638343Y-186494657D02*
X116685962Y-186542276D01*
X116733581Y-186685133D01*
X116733581Y-186780371D01*
X116685962Y-186923229D01*
X116590724Y-187018467D01*
X116495486Y-187066086D01*
X116305010Y-187113705D01*
X116162152Y-187113705D01*
X115971676Y-187066086D01*
X115876438Y-187018467D01*
X115781200Y-186923229D01*
X115733581Y-186780371D01*
X115733581Y-186685133D01*
X115781200Y-186542276D01*
X115828819Y-186494657D01*
X116733581Y-185542276D02*
X116733581Y-186113705D01*
X116733581Y-185827991D02*
X115733581Y-185827991D01*
X115876438Y-185923229D01*
X115971676Y-186018467D01*
X116019295Y-186113705D01*
X115733581Y-184637514D02*
X115733581Y-185113705D01*
X116209771Y-185161324D01*
X116162152Y-185113705D01*
X116114533Y-185018467D01*
X116114533Y-184780371D01*
X116162152Y-184685133D01*
X116209771Y-184637514D01*
X116305010Y-184589895D01*
X116543105Y-184589895D01*
X116638343Y-184637514D01*
X116685962Y-184685133D01*
X116733581Y-184780371D01*
X116733581Y-185018467D01*
X116685962Y-185113705D01*
X116638343Y-185161324D01*
X115177843Y-175204357D02*
X115225462Y-175251976D01*
X115273081Y-175394833D01*
X115273081Y-175490071D01*
X115225462Y-175632929D01*
X115130224Y-175728167D01*
X115034986Y-175775786D01*
X114844510Y-175823405D01*
X114701652Y-175823405D01*
X114511176Y-175775786D01*
X114415938Y-175728167D01*
X114320700Y-175632929D01*
X114273081Y-175490071D01*
X114273081Y-175394833D01*
X114320700Y-175251976D01*
X114368319Y-175204357D01*
X115273081Y-174251976D02*
X115273081Y-174823405D01*
X115273081Y-174537691D02*
X114273081Y-174537691D01*
X114415938Y-174632929D01*
X114511176Y-174728167D01*
X114558795Y-174823405D01*
X114273081Y-173394833D02*
X114273081Y-173585310D01*
X114320700Y-173680548D01*
X114368319Y-173728167D01*
X114511176Y-173823405D01*
X114701652Y-173871024D01*
X115082605Y-173871024D01*
X115177843Y-173823405D01*
X115225462Y-173775786D01*
X115273081Y-173680548D01*
X115273081Y-173490071D01*
X115225462Y-173394833D01*
X115177843Y-173347214D01*
X115082605Y-173299595D01*
X114844510Y-173299595D01*
X114749271Y-173347214D01*
X114701652Y-173394833D01*
X114654033Y-173490071D01*
X114654033Y-173680548D01*
X114701652Y-173775786D01*
X114749271Y-173823405D01*
X114844510Y-173871024D01*
X138507743Y-167279557D02*
X138555362Y-167327176D01*
X138602981Y-167470033D01*
X138602981Y-167565271D01*
X138555362Y-167708129D01*
X138460124Y-167803367D01*
X138364886Y-167850986D01*
X138174410Y-167898605D01*
X138031552Y-167898605D01*
X137841076Y-167850986D01*
X137745838Y-167803367D01*
X137650600Y-167708129D01*
X137602981Y-167565271D01*
X137602981Y-167470033D01*
X137650600Y-167327176D01*
X137698219Y-167279557D01*
X138602981Y-166327176D02*
X138602981Y-166898605D01*
X138602981Y-166612891D02*
X137602981Y-166612891D01*
X137745838Y-166708129D01*
X137841076Y-166803367D01*
X137888695Y-166898605D01*
X137602981Y-165993843D02*
X137602981Y-165327176D01*
X138602981Y-165755748D01*
X111825043Y-187561457D02*
X111872662Y-187609076D01*
X111920281Y-187751933D01*
X111920281Y-187847171D01*
X111872662Y-187990029D01*
X111777424Y-188085267D01*
X111682186Y-188132886D01*
X111491710Y-188180505D01*
X111348852Y-188180505D01*
X111158376Y-188132886D01*
X111063138Y-188085267D01*
X110967900Y-187990029D01*
X110920281Y-187847171D01*
X110920281Y-187751933D01*
X110967900Y-187609076D01*
X111015519Y-187561457D01*
X111920281Y-186609076D02*
X111920281Y-187180505D01*
X111920281Y-186894791D02*
X110920281Y-186894791D01*
X111063138Y-186990029D01*
X111158376Y-187085267D01*
X111205995Y-187180505D01*
X111348852Y-186037648D02*
X111301233Y-186132886D01*
X111253614Y-186180505D01*
X111158376Y-186228124D01*
X111110757Y-186228124D01*
X111015519Y-186180505D01*
X110967900Y-186132886D01*
X110920281Y-186037648D01*
X110920281Y-185847171D01*
X110967900Y-185751933D01*
X111015519Y-185704314D01*
X111110757Y-185656695D01*
X111158376Y-185656695D01*
X111253614Y-185704314D01*
X111301233Y-185751933D01*
X111348852Y-185847171D01*
X111348852Y-186037648D01*
X111396471Y-186132886D01*
X111444090Y-186180505D01*
X111539329Y-186228124D01*
X111729805Y-186228124D01*
X111825043Y-186180505D01*
X111872662Y-186132886D01*
X111920281Y-186037648D01*
X111920281Y-185847171D01*
X111872662Y-185751933D01*
X111825043Y-185704314D01*
X111729805Y-185656695D01*
X111539329Y-185656695D01*
X111444090Y-185704314D01*
X111396471Y-185751933D01*
X111348852Y-185847171D01*
X115511343Y-180570143D02*
X115463724Y-180617762D01*
X115320867Y-180665381D01*
X115225629Y-180665381D01*
X115082771Y-180617762D01*
X114987533Y-180522524D01*
X114939914Y-180427286D01*
X114892295Y-180236810D01*
X114892295Y-180093952D01*
X114939914Y-179903476D01*
X114987533Y-179808238D01*
X115082771Y-179713000D01*
X115225629Y-179665381D01*
X115320867Y-179665381D01*
X115463724Y-179713000D01*
X115511343Y-179760619D01*
X116463724Y-180665381D02*
X115892295Y-180665381D01*
X116178009Y-180665381D02*
X116178009Y-179665381D01*
X116082771Y-179808238D01*
X115987533Y-179903476D01*
X115892295Y-179951095D01*
X116939914Y-180665381D02*
X117130390Y-180665381D01*
X117225629Y-180617762D01*
X117273248Y-180570143D01*
X117368486Y-180427286D01*
X117416105Y-180236810D01*
X117416105Y-179855857D01*
X117368486Y-179760619D01*
X117320867Y-179713000D01*
X117225629Y-179665381D01*
X117035152Y-179665381D01*
X116939914Y-179713000D01*
X116892295Y-179760619D01*
X116844676Y-179855857D01*
X116844676Y-180093952D01*
X116892295Y-180189190D01*
X116939914Y-180236810D01*
X117035152Y-180284429D01*
X117225629Y-180284429D01*
X117320867Y-180236810D01*
X117368486Y-180189190D01*
X117416105Y-180093952D01*
X132513343Y-167203357D02*
X132560962Y-167250976D01*
X132608581Y-167393833D01*
X132608581Y-167489071D01*
X132560962Y-167631929D01*
X132465724Y-167727167D01*
X132370486Y-167774786D01*
X132180010Y-167822405D01*
X132037152Y-167822405D01*
X131846676Y-167774786D01*
X131751438Y-167727167D01*
X131656200Y-167631929D01*
X131608581Y-167489071D01*
X131608581Y-167393833D01*
X131656200Y-167250976D01*
X131703819Y-167203357D01*
X131703819Y-166822405D02*
X131656200Y-166774786D01*
X131608581Y-166679548D01*
X131608581Y-166441452D01*
X131656200Y-166346214D01*
X131703819Y-166298595D01*
X131799057Y-166250976D01*
X131894295Y-166250976D01*
X132037152Y-166298595D01*
X132608581Y-166870024D01*
X132608581Y-166250976D01*
X131608581Y-165631929D02*
X131608581Y-165536690D01*
X131656200Y-165441452D01*
X131703819Y-165393833D01*
X131799057Y-165346214D01*
X131989533Y-165298595D01*
X132227629Y-165298595D01*
X132418105Y-165346214D01*
X132513343Y-165393833D01*
X132560962Y-165441452D01*
X132608581Y-165536690D01*
X132608581Y-165631929D01*
X132560962Y-165727167D01*
X132513343Y-165774786D01*
X132418105Y-165822405D01*
X132227629Y-165870024D01*
X131989533Y-165870024D01*
X131799057Y-165822405D01*
X131703819Y-165774786D01*
X131656200Y-165727167D01*
X131608581Y-165631929D01*
X119307205Y-180866381D02*
X119307205Y-179866381D01*
X119545300Y-179866381D01*
X119688158Y-179914000D01*
X119783396Y-180009238D01*
X119831015Y-180104476D01*
X119878634Y-180294952D01*
X119878634Y-180437810D01*
X119831015Y-180628286D01*
X119783396Y-180723524D01*
X119688158Y-180818762D01*
X119545300Y-180866381D01*
X119307205Y-180866381D01*
X120831015Y-180866381D02*
X120259586Y-180866381D01*
X120545300Y-180866381D02*
X120545300Y-179866381D01*
X120450062Y-180009238D01*
X120354824Y-180104476D01*
X120259586Y-180152095D01*
X117141667Y-128230381D02*
X117141667Y-128944667D01*
X117094047Y-129087524D01*
X116998809Y-129182762D01*
X116855952Y-129230381D01*
X116760714Y-129230381D01*
X118141667Y-129230381D02*
X117570238Y-129230381D01*
X117855952Y-129230381D02*
X117855952Y-128230381D01*
X117760714Y-128373238D01*
X117665476Y-128468476D01*
X117570238Y-128516095D01*
X110546429Y-128706571D02*
X110689286Y-128754190D01*
X110736905Y-128801810D01*
X110784524Y-128897048D01*
X110784524Y-129039905D01*
X110736905Y-129135143D01*
X110689286Y-129182762D01*
X110594048Y-129230381D01*
X110213095Y-129230381D01*
X110213095Y-128230381D01*
X110546429Y-128230381D01*
X110641667Y-128278000D01*
X110689286Y-128325619D01*
X110736905Y-128420857D01*
X110736905Y-128516095D01*
X110689286Y-128611333D01*
X110641667Y-128658952D01*
X110546429Y-128706571D01*
X110213095Y-128706571D01*
X111213095Y-129230381D02*
X111213095Y-128230381D01*
X111784524Y-129230381D01*
X111784524Y-128230381D01*
X112832143Y-129135143D02*
X112784524Y-129182762D01*
X112641667Y-129230381D01*
X112546429Y-129230381D01*
X112403571Y-129182762D01*
X112308333Y-129087524D01*
X112260714Y-128992286D01*
X112213095Y-128801810D01*
X112213095Y-128658952D01*
X112260714Y-128468476D01*
X112308333Y-128373238D01*
X112403571Y-128278000D01*
X112546429Y-128230381D01*
X112641667Y-128230381D01*
X112784524Y-128278000D01*
X112832143Y-128325619D01*
X113022619Y-129325619D02*
X113784524Y-129325619D01*
X113927381Y-128230381D02*
X114594048Y-128230381D01*
X114165476Y-129230381D01*
X115451191Y-128230381D02*
X114975000Y-128230381D01*
X114927381Y-128706571D01*
X114975000Y-128658952D01*
X115070238Y-128611333D01*
X115308334Y-128611333D01*
X115403572Y-128658952D01*
X115451191Y-128706571D01*
X115498810Y-128801810D01*
X115498810Y-129039905D01*
X115451191Y-129135143D01*
X115403572Y-129182762D01*
X115308334Y-129230381D01*
X115070238Y-129230381D01*
X114975000Y-129182762D01*
X114927381Y-129135143D01*
X115689286Y-129325619D02*
X116451191Y-129325619D01*
X116879762Y-128230381D02*
X117070239Y-128230381D01*
X117165477Y-128278000D01*
X117260715Y-128373238D01*
X117308334Y-128563714D01*
X117308334Y-128897048D01*
X117260715Y-129087524D01*
X117165477Y-129182762D01*
X117070239Y-129230381D01*
X116879762Y-129230381D01*
X116784524Y-129182762D01*
X116689286Y-129087524D01*
X116641667Y-128897048D01*
X116641667Y-128563714D01*
X116689286Y-128373238D01*
X116784524Y-128278000D01*
X116879762Y-128230381D01*
X117736905Y-129230381D02*
X117736905Y-128230381D01*
X117736905Y-128706571D02*
X118308334Y-128706571D01*
X118308334Y-129230381D02*
X118308334Y-128230381D01*
X118784524Y-129230381D02*
X118784524Y-128230381D01*
X119117858Y-128944667D01*
X119451191Y-128230381D01*
X119451191Y-129230381D01*
X119689286Y-129325619D02*
X120451191Y-129325619D01*
X120689286Y-129230381D02*
X120689286Y-128230381D01*
X120689286Y-128706571D02*
X121260715Y-128706571D01*
X121260715Y-129230381D02*
X121260715Y-128230381D01*
X121927381Y-128230381D02*
X122117858Y-128230381D01*
X122213096Y-128278000D01*
X122308334Y-128373238D01*
X122355953Y-128563714D01*
X122355953Y-128897048D01*
X122308334Y-129087524D01*
X122213096Y-129182762D01*
X122117858Y-129230381D01*
X121927381Y-129230381D01*
X121832143Y-129182762D01*
X121736905Y-129087524D01*
X121689286Y-128897048D01*
X121689286Y-128563714D01*
X121736905Y-128373238D01*
X121832143Y-128278000D01*
X121927381Y-128230381D01*
X123355953Y-129230381D02*
X123022619Y-128754190D01*
X122784524Y-129230381D02*
X122784524Y-128230381D01*
X123165477Y-128230381D01*
X123260715Y-128278000D01*
X123308334Y-128325619D01*
X123355953Y-128420857D01*
X123355953Y-128563714D01*
X123308334Y-128658952D01*
X123260715Y-128706571D01*
X123165477Y-128754190D01*
X122784524Y-128754190D01*
X123784524Y-129230381D02*
X123784524Y-128230381D01*
X124165476Y-128230381D02*
X124832143Y-128230381D01*
X124165476Y-129230381D01*
X124832143Y-129230381D01*
X127658834Y-145714981D02*
X127325500Y-145238790D01*
X127087405Y-145714981D02*
X127087405Y-144714981D01*
X127468358Y-144714981D01*
X127563596Y-144762600D01*
X127611215Y-144810219D01*
X127658834Y-144905457D01*
X127658834Y-145048314D01*
X127611215Y-145143552D01*
X127563596Y-145191171D01*
X127468358Y-145238790D01*
X127087405Y-145238790D01*
X128611215Y-145714981D02*
X128039786Y-145714981D01*
X128325500Y-145714981D02*
X128325500Y-144714981D01*
X128230262Y-144857838D01*
X128135024Y-144953076D01*
X128039786Y-145000695D01*
X127061934Y-143073381D02*
X126728600Y-142597190D01*
X126490505Y-143073381D02*
X126490505Y-142073381D01*
X126871458Y-142073381D01*
X126966696Y-142121000D01*
X127014315Y-142168619D01*
X127061934Y-142263857D01*
X127061934Y-142406714D01*
X127014315Y-142501952D01*
X126966696Y-142549571D01*
X126871458Y-142597190D01*
X126490505Y-142597190D01*
X127442886Y-142168619D02*
X127490505Y-142121000D01*
X127585743Y-142073381D01*
X127823839Y-142073381D01*
X127919077Y-142121000D01*
X127966696Y-142168619D01*
X128014315Y-142263857D01*
X128014315Y-142359095D01*
X127966696Y-142501952D01*
X127395267Y-143073381D01*
X128014315Y-143073381D01*
X126325334Y-140647681D02*
X125992000Y-140171490D01*
X125753905Y-140647681D02*
X125753905Y-139647681D01*
X126134858Y-139647681D01*
X126230096Y-139695300D01*
X126277715Y-139742919D01*
X126325334Y-139838157D01*
X126325334Y-139981014D01*
X126277715Y-140076252D01*
X126230096Y-140123871D01*
X126134858Y-140171490D01*
X125753905Y-140171490D01*
X126658667Y-139647681D02*
X127277715Y-139647681D01*
X126944381Y-140028633D01*
X127087239Y-140028633D01*
X127182477Y-140076252D01*
X127230096Y-140123871D01*
X127277715Y-140219110D01*
X127277715Y-140457205D01*
X127230096Y-140552443D01*
X127182477Y-140600062D01*
X127087239Y-140647681D01*
X126801524Y-140647681D01*
X126706286Y-140600062D01*
X126658667Y-140552443D01*
X127493734Y-138082281D02*
X127160400Y-137606090D01*
X126922305Y-138082281D02*
X126922305Y-137082281D01*
X127303258Y-137082281D01*
X127398496Y-137129900D01*
X127446115Y-137177519D01*
X127493734Y-137272757D01*
X127493734Y-137415614D01*
X127446115Y-137510852D01*
X127398496Y-137558471D01*
X127303258Y-137606090D01*
X126922305Y-137606090D01*
X128350877Y-137415614D02*
X128350877Y-138082281D01*
X128112781Y-137034662D02*
X127874686Y-137748948D01*
X128493734Y-137748948D01*
X119878634Y-185645981D02*
X119545300Y-185169790D01*
X119307205Y-185645981D02*
X119307205Y-184645981D01*
X119688158Y-184645981D01*
X119783396Y-184693600D01*
X119831015Y-184741219D01*
X119878634Y-184836457D01*
X119878634Y-184979314D01*
X119831015Y-185074552D01*
X119783396Y-185122171D01*
X119688158Y-185169790D01*
X119307205Y-185169790D01*
X120783396Y-184645981D02*
X120307205Y-184645981D01*
X120259586Y-185122171D01*
X120307205Y-185074552D01*
X120402443Y-185026933D01*
X120640539Y-185026933D01*
X120735777Y-185074552D01*
X120783396Y-185122171D01*
X120831015Y-185217410D01*
X120831015Y-185455505D01*
X120783396Y-185550743D01*
X120735777Y-185598362D01*
X120640539Y-185645981D01*
X120402443Y-185645981D01*
X120307205Y-185598362D01*
X120259586Y-185550743D01*
X122743934Y-130220981D02*
X122410600Y-129744790D01*
X122172505Y-130220981D02*
X122172505Y-129220981D01*
X122553458Y-129220981D01*
X122648696Y-129268600D01*
X122696315Y-129316219D01*
X122743934Y-129411457D01*
X122743934Y-129554314D01*
X122696315Y-129649552D01*
X122648696Y-129697171D01*
X122553458Y-129744790D01*
X122172505Y-129744790D01*
X123601077Y-129220981D02*
X123410600Y-129220981D01*
X123315362Y-129268600D01*
X123267743Y-129316219D01*
X123172505Y-129459076D01*
X123124886Y-129649552D01*
X123124886Y-130030505D01*
X123172505Y-130125743D01*
X123220124Y-130173362D01*
X123315362Y-130220981D01*
X123505839Y-130220981D01*
X123601077Y-130173362D01*
X123648696Y-130125743D01*
X123696315Y-130030505D01*
X123696315Y-129792410D01*
X123648696Y-129697171D01*
X123601077Y-129649552D01*
X123505839Y-129601933D01*
X123315362Y-129601933D01*
X123220124Y-129649552D01*
X123172505Y-129697171D01*
X123124886Y-129792410D01*
X111181481Y-145289566D02*
X110705290Y-145622900D01*
X111181481Y-145860995D02*
X110181481Y-145860995D01*
X110181481Y-145480042D01*
X110229100Y-145384804D01*
X110276719Y-145337185D01*
X110371957Y-145289566D01*
X110514814Y-145289566D01*
X110610052Y-145337185D01*
X110657671Y-145384804D01*
X110705290Y-145480042D01*
X110705290Y-145860995D01*
X110181481Y-144956233D02*
X110181481Y-144289566D01*
X111181481Y-144718138D01*
X111247181Y-141187466D02*
X110770990Y-141520800D01*
X111247181Y-141758895D02*
X110247181Y-141758895D01*
X110247181Y-141377942D01*
X110294800Y-141282704D01*
X110342419Y-141235085D01*
X110437657Y-141187466D01*
X110580514Y-141187466D01*
X110675752Y-141235085D01*
X110723371Y-141282704D01*
X110770990Y-141377942D01*
X110770990Y-141758895D01*
X110675752Y-140616038D02*
X110628133Y-140711276D01*
X110580514Y-140758895D01*
X110485276Y-140806514D01*
X110437657Y-140806514D01*
X110342419Y-140758895D01*
X110294800Y-140711276D01*
X110247181Y-140616038D01*
X110247181Y-140425561D01*
X110294800Y-140330323D01*
X110342419Y-140282704D01*
X110437657Y-140235085D01*
X110485276Y-140235085D01*
X110580514Y-140282704D01*
X110628133Y-140330323D01*
X110675752Y-140425561D01*
X110675752Y-140616038D01*
X110723371Y-140711276D01*
X110770990Y-140758895D01*
X110866229Y-140806514D01*
X111056705Y-140806514D01*
X111151943Y-140758895D01*
X111199562Y-140711276D01*
X111247181Y-140616038D01*
X111247181Y-140425561D01*
X111199562Y-140330323D01*
X111151943Y-140282704D01*
X111056705Y-140235085D01*
X110866229Y-140235085D01*
X110770990Y-140282704D01*
X110723371Y-140330323D01*
X110675752Y-140425561D01*
X119010134Y-130220981D02*
X118676800Y-129744790D01*
X118438705Y-130220981D02*
X118438705Y-129220981D01*
X118819658Y-129220981D01*
X118914896Y-129268600D01*
X118962515Y-129316219D01*
X119010134Y-129411457D01*
X119010134Y-129554314D01*
X118962515Y-129649552D01*
X118914896Y-129697171D01*
X118819658Y-129744790D01*
X118438705Y-129744790D01*
X119486324Y-130220981D02*
X119676800Y-130220981D01*
X119772039Y-130173362D01*
X119819658Y-130125743D01*
X119914896Y-129982886D01*
X119962515Y-129792410D01*
X119962515Y-129411457D01*
X119914896Y-129316219D01*
X119867277Y-129268600D01*
X119772039Y-129220981D01*
X119581562Y-129220981D01*
X119486324Y-129268600D01*
X119438705Y-129316219D01*
X119391086Y-129411457D01*
X119391086Y-129649552D01*
X119438705Y-129744790D01*
X119486324Y-129792410D01*
X119581562Y-129840029D01*
X119772039Y-129840029D01*
X119867277Y-129792410D01*
X119914896Y-129744790D01*
X119962515Y-129649552D01*
X116287705Y-146061181D02*
X116287705Y-146870705D01*
X116335324Y-146965943D01*
X116382943Y-147013562D01*
X116478181Y-147061181D01*
X116668658Y-147061181D01*
X116763896Y-147013562D01*
X116811515Y-146965943D01*
X116859134Y-146870705D01*
X116859134Y-146061181D01*
X117859134Y-147061181D02*
X117287705Y-147061181D01*
X117573419Y-147061181D02*
X117573419Y-146061181D01*
X117478181Y-146204038D01*
X117382943Y-146299276D01*
X117287705Y-146346895D01*
X118478181Y-146061181D02*
X118573420Y-146061181D01*
X118668658Y-146108800D01*
X118716277Y-146156419D01*
X118763896Y-146251657D01*
X118811515Y-146442133D01*
X118811515Y-146680229D01*
X118763896Y-146870705D01*
X118716277Y-146965943D01*
X118668658Y-147013562D01*
X118573420Y-147061181D01*
X118478181Y-147061181D01*
X118382943Y-147013562D01*
X118335324Y-146965943D01*
X118287705Y-146870705D01*
X118240086Y-146680229D01*
X118240086Y-146442133D01*
X118287705Y-146251657D01*
X118335324Y-146156419D01*
X118382943Y-146108800D01*
X118478181Y-146061181D01*
X113568624Y-141892281D02*
X113092433Y-141892281D01*
X113092433Y-140892281D01*
X113901957Y-141892281D02*
X113901957Y-140892281D01*
X114235291Y-141606567D01*
X114568624Y-140892281D01*
X114568624Y-141892281D01*
X115044814Y-141892281D02*
X115044814Y-140892281D01*
X115044814Y-141368471D02*
X115616243Y-141368471D01*
X115616243Y-141892281D02*
X115616243Y-140892281D01*
X116521005Y-140892281D02*
X116330528Y-140892281D01*
X116235290Y-140939900D01*
X116187671Y-140987519D01*
X116092433Y-141130376D01*
X116044814Y-141320852D01*
X116044814Y-141701805D01*
X116092433Y-141797043D01*
X116140052Y-141844662D01*
X116235290Y-141892281D01*
X116425767Y-141892281D01*
X116521005Y-141844662D01*
X116568624Y-141797043D01*
X116616243Y-141701805D01*
X116616243Y-141463710D01*
X116568624Y-141368471D01*
X116521005Y-141320852D01*
X116425767Y-141273233D01*
X116235290Y-141273233D01*
X116140052Y-141320852D01*
X116092433Y-141368471D01*
X116044814Y-141463710D01*
X117521005Y-140892281D02*
X117044814Y-140892281D01*
X116997195Y-141368471D01*
X117044814Y-141320852D01*
X117140052Y-141273233D01*
X117378148Y-141273233D01*
X117473386Y-141320852D01*
X117521005Y-141368471D01*
X117568624Y-141463710D01*
X117568624Y-141701805D01*
X117521005Y-141797043D01*
X117473386Y-141844662D01*
X117378148Y-141892281D01*
X117140052Y-141892281D01*
X117044814Y-141844662D01*
X116997195Y-141797043D01*
X117901957Y-140892281D02*
X118568624Y-140892281D01*
X118140052Y-141892281D01*
X119378148Y-141225614D02*
X119378148Y-141892281D01*
X119140052Y-140844662D02*
X118901957Y-141558948D01*
X119521005Y-141558948D01*
X119901957Y-141892281D02*
X119901957Y-140892281D01*
X120235291Y-141606567D01*
X120568624Y-140892281D01*
X120568624Y-141892281D01*
X120997195Y-141606567D02*
X121473386Y-141606567D01*
X120901957Y-141892281D02*
X121235290Y-140892281D01*
X121568624Y-141892281D01*
X116414705Y-132218181D02*
X116414705Y-133027705D01*
X116462324Y-133122943D01*
X116509943Y-133170562D01*
X116605181Y-133218181D01*
X116795658Y-133218181D01*
X116890896Y-133170562D01*
X116938515Y-133122943D01*
X116986134Y-133027705D01*
X116986134Y-132218181D01*
X117986134Y-133218181D02*
X117414705Y-133218181D01*
X117700419Y-133218181D02*
X117700419Y-132218181D01*
X117605181Y-132361038D01*
X117509943Y-132456276D01*
X117414705Y-132503895D01*
X118367086Y-132313419D02*
X118414705Y-132265800D01*
X118509943Y-132218181D01*
X118748039Y-132218181D01*
X118843277Y-132265800D01*
X118890896Y-132313419D01*
X118938515Y-132408657D01*
X118938515Y-132503895D01*
X118890896Y-132646752D01*
X118319467Y-133218181D01*
X118938515Y-133218181D01*
X111762328Y-133945381D02*
X112333757Y-133945381D01*
X112048042Y-134945381D02*
X112048042Y-133945381D01*
X112571852Y-133945381D02*
X113238519Y-134945381D01*
X113238519Y-133945381D02*
X112571852Y-134945381D01*
X113952805Y-134421571D02*
X114095662Y-134469190D01*
X114143281Y-134516810D01*
X114190900Y-134612048D01*
X114190900Y-134754905D01*
X114143281Y-134850143D01*
X114095662Y-134897762D01*
X114000424Y-134945381D01*
X113619471Y-134945381D01*
X113619471Y-133945381D01*
X113952805Y-133945381D01*
X114048043Y-133993000D01*
X114095662Y-134040619D01*
X114143281Y-134135857D01*
X114143281Y-134231095D01*
X114095662Y-134326333D01*
X114048043Y-134373952D01*
X113952805Y-134421571D01*
X113619471Y-134421571D01*
X114809947Y-133945381D02*
X114905186Y-133945381D01*
X115000424Y-133993000D01*
X115048043Y-134040619D01*
X115095662Y-134135857D01*
X115143281Y-134326333D01*
X115143281Y-134564429D01*
X115095662Y-134754905D01*
X115048043Y-134850143D01*
X115000424Y-134897762D01*
X114905186Y-134945381D01*
X114809947Y-134945381D01*
X114714709Y-134897762D01*
X114667090Y-134850143D01*
X114619471Y-134754905D01*
X114571852Y-134564429D01*
X114571852Y-134326333D01*
X114619471Y-134135857D01*
X114667090Y-134040619D01*
X114714709Y-133993000D01*
X114809947Y-133945381D01*
X116095662Y-134945381D02*
X115524233Y-134945381D01*
X115809947Y-134945381D02*
X115809947Y-133945381D01*
X115714709Y-134088238D01*
X115619471Y-134183476D01*
X115524233Y-134231095D01*
X116714709Y-133945381D02*
X116809948Y-133945381D01*
X116905186Y-133993000D01*
X116952805Y-134040619D01*
X117000424Y-134135857D01*
X117048043Y-134326333D01*
X117048043Y-134564429D01*
X117000424Y-134754905D01*
X116952805Y-134850143D01*
X116905186Y-134897762D01*
X116809948Y-134945381D01*
X116714709Y-134945381D01*
X116619471Y-134897762D01*
X116571852Y-134850143D01*
X116524233Y-134754905D01*
X116476614Y-134564429D01*
X116476614Y-134326333D01*
X116524233Y-134135857D01*
X116571852Y-134040619D01*
X116619471Y-133993000D01*
X116714709Y-133945381D01*
X117428995Y-134040619D02*
X117476614Y-133993000D01*
X117571852Y-133945381D01*
X117809948Y-133945381D01*
X117905186Y-133993000D01*
X117952805Y-134040619D01*
X118000424Y-134135857D01*
X118000424Y-134231095D01*
X117952805Y-134373952D01*
X117381376Y-134945381D01*
X118000424Y-134945381D01*
X118190900Y-135040619D02*
X118952805Y-135040619D01*
X119190900Y-134945381D02*
X119190900Y-133945381D01*
X119428995Y-133945381D01*
X119571853Y-133993000D01*
X119667091Y-134088238D01*
X119714710Y-134183476D01*
X119762329Y-134373952D01*
X119762329Y-134516810D01*
X119714710Y-134707286D01*
X119667091Y-134802524D01*
X119571853Y-134897762D01*
X119428995Y-134945381D01*
X119190900Y-134945381D01*
X120762329Y-134850143D02*
X120714710Y-134897762D01*
X120571853Y-134945381D01*
X120476615Y-134945381D01*
X120333757Y-134897762D01*
X120238519Y-134802524D01*
X120190900Y-134707286D01*
X120143281Y-134516810D01*
X120143281Y-134373952D01*
X120190900Y-134183476D01*
X120238519Y-134088238D01*
X120333757Y-133993000D01*
X120476615Y-133945381D01*
X120571853Y-133945381D01*
X120714710Y-133993000D01*
X120762329Y-134040619D01*
X121190900Y-133945381D02*
X121190900Y-134754905D01*
X121238519Y-134850143D01*
X121286138Y-134897762D01*
X121381376Y-134945381D01*
X121571853Y-134945381D01*
X121667091Y-134897762D01*
X121714710Y-134850143D01*
X121762329Y-134754905D01*
X121762329Y-133945381D01*
X122000424Y-135040619D02*
X122762329Y-135040619D01*
X123143281Y-134373952D02*
X123048043Y-134326333D01*
X123000424Y-134278714D01*
X122952805Y-134183476D01*
X122952805Y-134135857D01*
X123000424Y-134040619D01*
X123048043Y-133993000D01*
X123143281Y-133945381D01*
X123333758Y-133945381D01*
X123428996Y-133993000D01*
X123476615Y-134040619D01*
X123524234Y-134135857D01*
X123524234Y-134183476D01*
X123476615Y-134278714D01*
X123428996Y-134326333D01*
X123333758Y-134373952D01*
X123143281Y-134373952D01*
X123048043Y-134421571D01*
X123000424Y-134469190D01*
X122952805Y-134564429D01*
X122952805Y-134754905D01*
X123000424Y-134850143D01*
X123048043Y-134897762D01*
X123143281Y-134945381D01*
X123333758Y-134945381D01*
X123428996Y-134897762D01*
X123476615Y-134850143D01*
X123524234Y-134754905D01*
X123524234Y-134564429D01*
X123476615Y-134469190D01*
X123428996Y-134421571D01*
X123333758Y-134373952D01*
X163500667Y-125155381D02*
X163500667Y-125869667D01*
X163453047Y-126012524D01*
X163357809Y-126107762D01*
X163214952Y-126155381D01*
X163119714Y-126155381D01*
X163929238Y-125250619D02*
X163976857Y-125203000D01*
X164072095Y-125155381D01*
X164310191Y-125155381D01*
X164405429Y-125203000D01*
X164453048Y-125250619D01*
X164500667Y-125345857D01*
X164500667Y-125441095D01*
X164453048Y-125583952D01*
X163881619Y-126155381D01*
X164500667Y-126155381D01*
X163500667Y-137474381D02*
X163500667Y-138188667D01*
X163453047Y-138331524D01*
X163357809Y-138426762D01*
X163214952Y-138474381D01*
X163119714Y-138474381D01*
X163881619Y-137474381D02*
X164500667Y-137474381D01*
X164167333Y-137855333D01*
X164310191Y-137855333D01*
X164405429Y-137902952D01*
X164453048Y-137950571D01*
X164500667Y-138045810D01*
X164500667Y-138283905D01*
X164453048Y-138379143D01*
X164405429Y-138426762D01*
X164310191Y-138474381D01*
X164024476Y-138474381D01*
X163929238Y-138426762D01*
X163881619Y-138379143D01*
X163500667Y-149539381D02*
X163500667Y-150253667D01*
X163453047Y-150396524D01*
X163357809Y-150491762D01*
X163214952Y-150539381D01*
X163119714Y-150539381D01*
X164405429Y-149872714D02*
X164405429Y-150539381D01*
X164167333Y-149491762D02*
X163929238Y-150206048D01*
X164548286Y-150206048D01*
X163246667Y-112836381D02*
X163246667Y-113550667D01*
X163199047Y-113693524D01*
X163103809Y-113788762D01*
X162960952Y-113836381D01*
X162865714Y-113836381D01*
X164199048Y-112836381D02*
X163722857Y-112836381D01*
X163675238Y-113312571D01*
X163722857Y-113264952D01*
X163818095Y-113217333D01*
X164056191Y-113217333D01*
X164151429Y-113264952D01*
X164199048Y-113312571D01*
X164246667Y-113407810D01*
X164246667Y-113645905D01*
X164199048Y-113741143D01*
X164151429Y-113788762D01*
X164056191Y-113836381D01*
X163818095Y-113836381D01*
X163722857Y-113788762D01*
X163675238Y-113741143D01*
M02*
