G04 #@! TF.FileFunction,Soldermask,Top*
%FSLAX46Y46*%
G04 Gerber Fmt 4.6, Leading zero omitted, Abs format (unit mm)*
G04 Created by KiCad (PCBNEW 4.0.7) date 04/22/18 16:27:13*
%MOMM*%
%LPD*%
G01*
G04 APERTURE LIST*
%ADD10C,0.100000*%
%ADD11C,5.480000*%
%ADD12C,1.924000*%
%ADD13C,3.850000*%
%ADD14R,1.250000X1.250000*%
%ADD15C,1.250000*%
%ADD16R,1.150000X1.600000*%
%ADD17R,1.600000X1.300000*%
%ADD18C,3.041600*%
%ADD19R,1.300000X1.600000*%
%ADD20R,2.381200X0.958800*%
%ADD21R,1.568400X0.654000*%
%ADD22C,4.210000*%
%ADD23C,3.956000*%
G04 APERTURE END LIST*
D10*
D11*
X142748000Y-167261000D03*
X142748000Y-175260000D03*
X142748000Y-183261000D03*
D12*
X137703560Y-174594520D03*
X137703560Y-177134520D03*
X137703560Y-179674520D03*
X118567200Y-173812200D03*
X116027200Y-173812200D03*
X113487200Y-173812200D03*
D13*
X119837200Y-165176200D03*
X112217200Y-165176200D03*
D14*
X114757200Y-169265600D03*
D15*
X116007200Y-169265600D03*
X117257200Y-169265600D03*
D16*
X112631220Y-183680140D03*
X112631220Y-181780140D03*
X112552480Y-176816980D03*
X112552480Y-178716980D03*
X133324600Y-170825200D03*
X133324600Y-168925200D03*
X114968020Y-183680140D03*
X114968020Y-181780140D03*
X111384080Y-176816980D03*
X111384080Y-178716980D03*
X134493000Y-170825200D03*
X134493000Y-168925200D03*
X113799620Y-183680140D03*
X113799620Y-181780140D03*
X117200680Y-176816980D03*
X117200680Y-178716980D03*
X135661400Y-170825200D03*
X135661400Y-168925200D03*
X117304820Y-183705540D03*
X117304820Y-181805540D03*
X113720880Y-176816980D03*
X113720880Y-178716980D03*
X136829800Y-170825200D03*
X136829800Y-168925200D03*
X116136420Y-183680140D03*
X116136420Y-181780140D03*
X114863880Y-176816980D03*
X114863880Y-178716980D03*
X138023600Y-170825200D03*
X138023600Y-168925200D03*
X111462820Y-183680140D03*
X111462820Y-181780140D03*
X116032280Y-176816980D03*
X116032280Y-178716980D03*
X132130800Y-170850600D03*
X132130800Y-168950600D03*
D17*
X118945300Y-181864000D03*
X121145300Y-181864000D03*
D12*
X117475000Y-128778000D03*
X114935000Y-128778000D03*
D18*
X112395000Y-123698000D03*
X122555000Y-123698000D03*
D17*
X122255100Y-145249900D03*
X124455100Y-145249900D03*
X122255100Y-142709900D03*
X124455100Y-142709900D03*
X122255100Y-140169900D03*
X124455100Y-140169900D03*
X122255100Y-137629900D03*
X124455100Y-137629900D03*
X121145300Y-183743600D03*
X118945300Y-183743600D03*
X124091880Y-131150360D03*
X121891880Y-131150360D03*
D19*
X112179100Y-146222900D03*
X112179100Y-144022900D03*
X112179100Y-142031900D03*
X112179100Y-139831900D03*
D17*
X119743400Y-131216400D03*
X117543400Y-131216400D03*
D20*
X119722900Y-145249900D03*
X119722900Y-143979900D03*
X119722900Y-142709900D03*
X119722900Y-141439900D03*
X119722900Y-140169900D03*
X119722900Y-138899900D03*
X119722900Y-137629900D03*
X114795300Y-137629900D03*
X114795300Y-138899900D03*
X114795300Y-140169900D03*
X114795300Y-141439900D03*
X114795300Y-142709900D03*
X114795300Y-143979900D03*
X114795300Y-145249900D03*
D21*
X119062500Y-135243001D03*
X119062500Y-134743000D03*
X119062500Y-134243000D03*
X119062500Y-133742999D03*
X116319300Y-133742999D03*
X116319300Y-134243000D03*
X116319300Y-134743000D03*
X116319300Y-135243001D03*
D22*
X160909000Y-128778000D03*
D23*
X164084000Y-131953000D03*
D22*
X167259000Y-128778000D03*
X160909000Y-135128000D03*
X167259000Y-135128000D03*
X160909000Y-141097000D03*
D23*
X164084000Y-144272000D03*
D22*
X167259000Y-141097000D03*
X160909000Y-147447000D03*
X167259000Y-147447000D03*
X160909000Y-153162000D03*
D23*
X164084000Y-156337000D03*
D22*
X167259000Y-153162000D03*
X160909000Y-159512000D03*
X167259000Y-159512000D03*
X160655000Y-116459000D03*
D23*
X163830000Y-119634000D03*
D22*
X167005000Y-116459000D03*
X160655000Y-122809000D03*
X167005000Y-122809000D03*
D12*
X154114500Y-122174000D03*
X154114500Y-119634000D03*
X154114500Y-117094000D03*
X154114500Y-134493000D03*
X154114500Y-131953000D03*
X154114500Y-129413000D03*
X154114500Y-146748500D03*
X154114500Y-144208500D03*
X154114500Y-141668500D03*
X154114500Y-158813500D03*
X154114500Y-156273500D03*
X154114500Y-153733500D03*
M02*
