M48
;DRILL file {KiCad 4.0.7} date 04/22/18 16:27:14
;FORMAT={-:-/ absolute / inch / decimal}
FMAT,2
INCH,TZ
T1C0.016
T2C0.020
T3C0.030
T4C0.035
T5C0.050
T6C0.060
T7C0.104
T8C0.160
%
G90
G05
M72
T1
X4.3752Y-7.2936
X4.3852Y-6.896
X4.417Y-5.412
X4.4249Y-5.297
X4.5252Y-5.265
X4.5969Y-5.3658
X4.6662Y-5.3669
X4.731Y-5.2206
X4.958Y-5.163
X4.963Y-5.61
X4.977Y-5.418
X4.977Y-5.717
X5.104Y-6.652
X5.368Y-5.518
T2
X4.518Y-6.664
X4.5672Y-6.664
X4.6164Y-6.664
T3
X4.468Y-6.843
X4.568Y-6.843
X4.668Y-6.843
X6.0675Y-4.61
X6.0675Y-4.71
X6.0675Y-4.81
X6.0675Y-5.095
X6.0675Y-5.195
X6.0675Y-5.295
X6.0675Y-5.5775
X6.0675Y-5.6775
X6.0675Y-5.7775
X6.0675Y-6.0525
X6.0675Y-6.1525
X6.0675Y-6.2525
T4
X4.525Y-5.07
X4.625Y-5.07
X5.4214Y-6.8738
X5.4214Y-6.9738
X5.4214Y-7.0738
T5
X6.45Y-4.71
X6.46Y-5.195
X6.46Y-5.68
X6.46Y-6.155
T6
X6.325Y-4.585
X6.325Y-4.835
X6.335Y-5.07
X6.335Y-5.32
X6.335Y-5.555
X6.335Y-5.805
X6.335Y-6.03
X6.335Y-6.28
X6.575Y-4.585
X6.575Y-4.835
X6.585Y-5.07
X6.585Y-5.32
X6.585Y-5.555
X6.585Y-5.805
X6.585Y-6.03
X6.585Y-6.28
T7
X4.425Y-4.87
X4.825Y-4.87
T8
X5.62Y-6.5851
X5.62Y-6.9
X5.62Y-7.215
T0
M30
